<svg width="101" height="26" viewBox="0 0 101 26" fill="none" xmlns="http://www.w3.org/2000/svg">
<g clip-path="url(#clip0_435_5821)">
<path d="M8.17299 4.0004C10.0713 0.549346 14.9064 0.549344 16.8046 4.0004C16.8046 4.0004 16.9822 4.29463 17.0744 4.49428C17.8627 6.20087 17.0668 7.36624 16.2245 9.24129C15.7941 10.1993 15.2 11.089 14.5473 11.9906C14.3751 12.2284 14.1974 12.4689 14.0178 12.7121C13.5287 13.3741 13.0256 14.055 12.5826 14.7517C11.3446 16.6988 10.4817 18.907 11.2258 21.8494C11.5894 23.2873 12.207 24.2827 12.8891 24.9667H5.14061C1.34331 24.9667 -1.04457 20.7576 0.824781 17.3591L8.17299 4.0004Z" fill="white"/>
<path d="M22.0973 24.4133C21.4314 24.7636 20.6682 24.965 19.8375 24.965H15.8118C15.4051 24.965 14.9932 24.9089 14.6392 24.7065C13.8994 24.2832 12.9784 23.4103 12.5085 21.5519C11.8747 19.0454 12.5793 17.1831 13.7106 15.404C14.1283 14.7472 14.5917 14.1198 15.0716 13.4702C15.2568 13.2196 15.4445 12.9656 15.6329 12.7053C16.2976 11.787 16.9533 10.8136 17.4372 9.73632C17.9156 8.67134 18.1842 7.66303 18.3173 6.74805L24.1532 17.3576C25.5552 19.9064 24.5626 22.9111 22.3767 24.2543C22.2856 24.3102 22.1925 24.3633 22.0973 24.4133Z" fill="white"/>
<path d="M41.1802 20.0084H43.9508L38.9638 6.76977H36.0085L30.9846 20.0084H33.6812L34.771 16.9835H40.0905L41.1802 20.0084ZM37.4308 9.62662L39.2408 14.6308H35.6206L37.4308 9.62662ZM47.8976 20.0084V10.8216H45.4411V20.0084H47.8976ZM45.1454 7.81542C45.1454 8.63699 45.8289 9.32787 46.66 9.32787C47.5097 9.32787 48.1746 8.63699 48.1746 7.81542C48.1746 6.9565 47.5097 6.26562 46.66 6.26562C45.8289 6.26562 45.1454 6.9565 45.1454 7.81542ZM56.0688 10.7843C55.884 10.7656 55.6993 10.747 55.4961 10.747C54.7204 10.747 53.4644 10.971 52.9103 12.1847V10.8216H50.5276V20.0084H52.9842V15.8071C52.9842 13.8278 54.0739 13.2117 55.3298 13.2117C55.5515 13.2117 55.7916 13.2304 56.0688 13.2864V10.7843ZM60.2533 20.0084V14.6308C60.2533 13.6225 60.8812 12.8196 61.9526 12.8196C63.0607 12.8196 63.5595 13.5665 63.5595 14.5561V20.0084H65.9975V14.6308C65.9975 13.6412 66.6256 12.8196 67.6784 12.8196C68.8052 12.8196 69.2853 13.5665 69.2853 14.5561V20.0084H71.668V14.0519C71.668 11.5872 70.0611 10.5602 68.3802 10.5602C67.1796 10.5602 66.2192 10.971 65.4989 12.0914C65.0371 11.1017 64.0397 10.5602 62.8022 10.5602C61.8048 10.5602 60.6412 11.0457 60.1424 11.942V10.8216H57.7967V20.0084H60.2533ZM75.9484 14.3693C76.0038 13.5291 76.7057 12.5582 77.9802 12.5582C79.3839 12.5582 79.975 13.4545 80.0119 14.3693H75.9484ZM80.252 16.7595C79.9565 17.581 79.3285 18.1599 78.1833 18.1599C76.9642 18.1599 75.9484 17.2823 75.893 16.0686H82.3945C82.3945 16.0312 82.4315 15.6578 82.4315 15.303C82.4315 12.3528 80.7507 10.5416 77.9432 10.5416C75.616 10.5416 73.4733 12.4461 73.4733 15.3776C73.4733 18.4773 75.6713 20.2884 78.1648 20.2884C80.3998 20.2884 81.8404 18.9628 82.3022 17.3756L80.252 16.7595ZM86.1576 14.3693C86.2131 13.5291 86.9149 12.5582 88.1894 12.5582C89.5932 12.5582 90.1842 13.4545 90.2211 14.3693H86.1576ZM90.4613 16.7595C90.1658 17.581 89.5377 18.1599 88.3926 18.1599C87.1735 18.1599 86.1576 17.2823 86.1022 16.0686H92.6038C92.6038 16.0312 92.6408 15.6578 92.6408 15.303C92.6408 12.3528 90.9599 10.5416 88.1524 10.5416C85.8251 10.5416 83.6826 12.4461 83.6826 15.3776C83.6826 18.4773 85.8806 20.2884 88.3741 20.2884C90.609 20.2884 92.0497 18.9628 92.5115 17.3756L90.4613 16.7595ZM97.6044 8.07683H95.3879V9.36522C95.3879 10.1868 94.9446 10.8216 93.9842 10.8216H93.5224V13.025H95.1663V17.301C95.1663 19.0747 96.2745 20.1391 98.0477 20.1391C98.768 20.1391 99.2113 20.0084 99.433 19.915V17.8611C99.3037 17.8984 98.9712 17.9358 98.6757 17.9358C97.9738 17.9358 97.6044 17.6743 97.6044 16.8715V13.025H99.433V10.8216H97.6044V8.07683Z" fill="white"/>
</g>
<defs>
<clipPath id="clip0_435_5821">
<rect width="100.205" height="25.2617" fill="white" transform="translate(0.174805 0.556641)"/>
</clipPath>
</defs>
</svg>
