<svg width="69" height="28" viewBox="0 0 69 28" fill="none" xmlns="http://www.w3.org/2000/svg">
<g clip-path="url(#clip0_435_5828)">
<path d="M39.8529 12.0756C41.9886 12.6794 43.0991 14.1458 43.0991 16.4748C43.0991 17.9413 42.5866 19.1489 41.6469 20.0115C40.7072 20.8741 39.3403 21.3054 37.7172 21.3054H30.8831V4.39844H36.863C38.4861 4.39844 39.6821 4.74348 40.4509 5.43356C41.3052 6.12364 41.6469 7.15876 41.6469 8.53892C41.6469 9.40152 41.476 10.0916 41.2197 10.6954C40.878 11.213 40.4509 11.7305 39.8529 12.0756ZM33.7022 11.1267H36.5212C37.2901 11.1267 37.8881 10.9542 38.3152 10.6092C38.7424 10.2641 38.9132 9.74656 38.9132 8.97022C38.9132 8.19388 38.7424 7.67632 38.3152 7.33128C37.8881 6.98624 37.2901 6.81372 36.5212 6.81372H33.7022V11.1267ZM37.2901 18.8039C39.1695 18.8039 40.1092 17.9413 40.1092 16.3023C40.1092 15.3535 39.8529 14.7496 39.3403 14.3183C38.8278 13.887 38.1444 13.7145 37.2901 13.7145H33.7022V18.8039H37.2901Z" fill="white"/>
<path d="M44.8077 4.39844H47.456V7.15876H44.8077V4.39844ZM44.8077 9.31526H47.456V21.3054H44.8077V9.31526Z" fill="white"/>
<path d="M54.0338 21.5649C53.0086 21.5649 52.2398 21.3061 51.6418 20.7023C51.1292 20.0985 50.873 19.4084 50.873 18.5458V11.5587H49.079L49.3353 9.40224H50.873V6.55565L53.5212 6.29688V9.31598H56.3403V11.4725H53.5212V17.2519C53.5212 17.942 53.5212 18.4595 53.6066 18.7183C53.692 18.9771 53.8629 19.1496 54.1192 19.2359C54.3755 19.3221 54.888 19.3221 55.5714 19.3221H56.2549L56.084 21.5649H54.0338Z" fill="white"/>
<path d="M63.0037 21.564C61.8077 21.564 60.6972 21.3052 59.7575 20.7014C58.8178 20.0976 58.1343 19.4075 57.6218 18.4587C57.1092 17.5098 56.9384 16.4747 56.9384 15.3533C56.9384 14.2319 57.1946 13.1968 57.6218 12.2479C58.1343 11.2991 58.8178 10.5227 59.7575 10.0052C60.6972 9.40136 61.7223 9.14258 63.0037 9.14258C64.2851 9.14258 65.3102 9.40136 66.2499 10.0052C67.1896 10.5227 67.873 11.2991 68.3002 12.2479C68.8127 13.1968 68.9836 14.2319 68.9836 15.3533C68.9836 16.4747 68.7273 17.5098 68.3002 18.4587C67.7876 19.4075 67.1042 20.1839 66.2499 20.7014C65.3102 21.3052 64.2851 21.564 63.0037 21.564ZM63.0037 19.235C64.0288 19.235 64.8831 18.89 65.3956 18.1999C65.9936 17.5098 66.2499 16.5609 66.2499 15.267C66.2499 14.0594 65.9936 13.1105 65.3956 12.4205C64.7977 11.7304 64.0288 11.2991 63.0037 11.2991C61.9786 11.2991 61.1243 11.6441 60.6117 12.4205C60.0137 13.1105 59.7575 14.0594 59.7575 15.267C59.7575 16.4747 60.0137 17.4235 60.6117 18.1999C61.2097 18.89 61.9786 19.235 63.0037 19.235Z" fill="white"/>
<path fill-rule="evenodd" clip-rule="evenodd" d="M26.6117 12.939C26.6117 20.0986 20.888 25.878 13.7976 25.878C12.9433 25.878 12.1745 25.7917 11.4056 25.6192L6.02372 27.9482C5.51116 28.1208 4.9986 27.862 4.91317 27.3444L4.14432 21.4787C2.1795 19.1497 0.983521 16.2169 0.983521 12.939C0.983521 5.77942 6.70714 0 13.7976 0C20.888 0 26.6117 5.77942 26.6117 12.939ZM15.7624 9.83364C15.9333 9.22982 15.5916 8.626 14.9936 8.53974C14.3956 8.36722 13.7976 8.71226 13.7122 9.31608L11.9182 16.0444C11.7473 16.6482 12.089 17.252 12.687 17.3383C13.285 17.5108 13.883 17.1657 13.9684 16.5619L15.7624 9.83364ZM5.59659 12.1627C5.16945 12.594 5.16945 13.284 5.59659 13.7153L8.75739 16.907C9.18453 17.3383 9.86794 17.3383 10.2951 16.907C10.7222 16.4757 10.7222 15.7856 10.2951 15.3543L7.81769 12.939L10.2951 10.4375C10.7222 10.0062 10.7222 9.31608 10.2951 8.88478C9.86794 8.45348 9.18453 8.45348 8.75739 8.88478L5.59659 12.1627ZM21.9986 13.7153C22.4257 13.284 22.4257 12.594 21.9986 12.1627L18.8378 8.97104C18.4107 8.53974 17.7272 8.53974 17.3001 8.97104C16.873 9.40234 16.873 10.0924 17.3001 10.5237L19.7775 12.939L17.3001 15.4405C16.873 15.8718 16.873 16.5619 17.3001 16.9932C17.7272 17.4245 18.4107 17.4245 18.8378 16.9932L21.9986 13.7153Z" fill="white"/>
</g>
<defs>
<clipPath id="clip0_435_5828">
<rect width="68" height="28" fill="white" transform="translate(0.983521)"/>
</clipPath>
</defs>
</svg>
