<svg width="115" height="22" viewBox="0 0 115 22" fill="none" xmlns="http://www.w3.org/2000/svg">
<g clip-path="url(#clip0_435_5885)">
<path d="M15.4992 12.6618C15.4992 12.0208 14.9385 11.6952 14.4359 11.2882C11.7897 9.1413 8.08026 7.34375 8.08026 7.34375V20.0996L14.0872 21.8429C14.2508 21.8892 14.423 21.8976 14.5904 21.8673C14.7577 21.837 14.9159 21.7689 15.0524 21.6682C15.189 21.5675 15.3003 21.4369 15.3778 21.2867C15.4553 21.1364 15.4968 20.9704 15.4992 20.8016V12.6618Z" fill="white"/>
<path d="M0.657349 12.6651C0.657349 12.0241 1.21804 11.6985 1.72061 11.2915C4.36681 9.12763 8.07627 7.33008 8.07627 7.33008V20.1029L2.07275 21.8461C1.90894 21.8931 1.73639 21.902 1.56856 21.872C1.40073 21.842 1.24214 21.774 1.10516 21.6732C0.968181 21.5724 0.856502 21.4417 0.778828 21.291C0.701154 21.1404 0.659581 20.9741 0.657349 20.8049V12.6651Z" fill="white"/>
<path d="M12.5585 6.16061C12.5585 6.53707 12.8833 6.72361 13.1773 6.96102C14.3304 7.84859 15.5682 8.62216 16.8731 9.27071V1.82953L13.3824 0.818831C13.2867 0.790925 13.1857 0.785514 13.0875 0.803027C12.9893 0.82054 12.8965 0.860496 12.8166 0.919731C12.7366 0.978966 12.6717 1.05585 12.6269 1.1443C12.5821 1.23275 12.5587 1.33033 12.5585 1.42932V6.16061Z" fill="white"/>
<path d="M21.1707 6.16356C21.1707 6.54003 20.8459 6.72657 20.5553 6.96398C19.406 7.85001 18.1728 8.62351 16.8732 9.27366V1.83249L20.3604 0.815008C20.4558 0.789452 20.5559 0.786071 20.6528 0.805127C20.7498 0.824183 20.841 0.865162 20.9194 0.924879C20.9978 0.984596 21.0612 1.06144 21.1048 1.14944C21.1484 1.23745 21.1709 1.33423 21.1707 1.43228V6.16356Z" fill="white"/>
<path d="M24.6202 21.8886C23.7688 21.9128 22.9214 21.7648 22.1295 21.4537C21.3376 21.1426 20.6179 20.6749 20.014 20.079C19.4102 19.4831 18.9349 18.7716 18.6171 17.9877C18.2993 17.2038 18.1456 16.3639 18.1654 15.5192C18.1434 14.6826 18.2951 13.8505 18.6109 13.0745C18.9267 12.2986 19.4 11.5953 20.0013 11.0084C20.6019 10.413 21.3185 9.94534 22.1073 9.63394C22.8962 9.32255 23.7408 9.17396 24.5894 9.19725C25.9871 9.14835 27.3615 9.5611 28.4972 10.3707C29.4703 11.0506 30.1911 12.029 30.5485 13.1553L28.1792 13.725C27.9423 13.0573 27.4906 12.4852 26.8938 12.0971C26.2134 11.6449 25.4081 11.4138 24.5894 11.4357C24.0524 11.4146 23.5171 11.5095 23.0206 11.7139C22.5241 11.9182 22.0784 12.2272 21.7142 12.6194C20.9869 13.4038 20.5937 14.4368 20.6167 15.5022C20.5919 16.5837 20.9901 17.6327 21.7279 18.4292C22.0871 18.8253 22.5295 19.1384 23.0239 19.3464C23.5183 19.5544 24.0527 19.6523 24.5894 19.6332C25.408 19.6539 26.2133 19.4254 26.8972 18.9786C27.496 18.5994 27.9497 18.0323 28.1861 17.3676L30.5177 17.9645C30.1778 19.0847 29.4641 20.0571 28.4938 20.7219C27.3724 21.5168 26.0183 21.9233 24.6407 21.8785L24.6202 21.8886Z" fill="white"/>
<path d="M34.6203 14.1261C35.2038 12.982 36.1816 12.5049 37.5537 12.6949V14.8587C36.5862 14.7061 35.8443 14.8587 35.3657 15.3437C34.887 15.8287 34.6272 16.6359 34.6272 17.7958V21.6351H32.3126V12.817H34.6272V14.1193L34.6203 14.1261Z" fill="white"/>
<path d="M42.8491 21.8889C42.212 21.915 41.5761 21.8154 40.9781 21.5959C40.3801 21.3764 39.8319 21.0414 39.3653 20.6103C38.9171 20.1724 38.5666 19.6461 38.3363 19.0654C38.1061 18.4847 38.0012 17.8625 38.0285 17.239C38.0092 16.6265 38.1129 16.0163 38.3336 15.4439C38.5542 14.8715 38.8875 14.3484 39.314 13.9051C39.7499 13.4625 40.2746 13.1155 40.854 12.8865C41.4335 12.6575 42.0549 12.5516 42.6782 12.5756C44.0936 12.5756 45.2184 12.9995 46.0423 13.861C46.4535 14.2941 46.7745 14.8034 46.9869 15.3598C47.1993 15.9162 47.2989 16.5087 47.28 17.1034C47.2859 17.3768 47.2687 17.6502 47.2287 17.9208H40.3158C40.3729 18.4879 40.65 19.0108 41.0884 19.3791C41.6081 19.7682 42.2506 19.9606 42.9004 19.9218C43.9306 19.9218 44.6509 19.5329 45.0611 18.7551L47.1535 19.369C46.815 20.0892 46.275 20.6978 45.5979 21.1224C44.7854 21.6456 43.8309 21.9095 42.8628 21.8788L42.8491 21.8889ZM45.0064 16.4827C44.9527 15.9432 44.695 15.4439 44.285 15.0854C43.8269 14.7178 43.2555 14.5173 42.6662 14.5173C42.077 14.5173 41.5056 14.7178 41.0474 15.0854C40.6374 15.4451 40.3767 15.9431 40.3158 16.4827H45.0064Z" fill="white"/>
<path d="M58.0941 8.93143V21.6398H55.7488V20.5578C55.4155 20.9905 54.9821 21.3372 54.4852 21.5686C53.9883 21.8001 53.4425 21.9094 52.894 21.8874C52.3071 21.8994 51.7245 21.7863 51.1854 21.5558C50.6463 21.3252 50.1634 20.9826 49.7692 20.5511C48.926 19.6512 48.4729 18.4588 48.5076 17.2307C48.468 15.9967 48.9214 14.7972 49.7692 13.8933C50.1662 13.4642 50.6508 13.1239 51.1909 12.8952C51.7309 12.6665 52.3138 12.5547 52.9009 12.5672C53.4482 12.5423 53.9935 12.6482 54.4909 12.876C54.9883 13.1039 55.4232 13.447 55.759 13.8764V8.9043L58.0941 8.93143ZM53.3077 19.8083C53.6433 19.8155 53.9767 19.7535 54.2868 19.6263C54.597 19.499 54.8771 19.3092 55.1095 19.0689C55.3521 18.8219 55.5418 18.5287 55.667 18.2069C55.7921 17.8851 55.8502 17.5415 55.8377 17.1968C55.8446 16.8589 55.782 16.5232 55.6539 16.2101C55.5258 15.8969 55.3347 15.613 55.0924 15.3755C54.8617 15.1369 54.5846 14.9475 54.2778 14.8186C53.9709 14.6897 53.6409 14.6242 53.3077 14.6259C52.9732 14.6146 52.64 14.6731 52.3296 14.7975C52.0193 14.922 51.7387 15.1096 51.506 15.3483C51.2691 15.5969 51.0847 15.8901 50.9638 16.2104C50.8428 16.5308 50.7877 16.8719 50.8017 17.2137C50.7831 17.5587 50.8343 17.9039 50.9523 18.2289C51.0704 18.554 51.2528 18.8523 51.4889 19.1062C51.7235 19.3471 52.0069 19.536 52.3204 19.6605C52.6338 19.7851 52.9703 19.8423 53.3077 19.8286V19.8083Z" fill="white"/>
<path d="M61.547 11.5914C61.1843 11.5914 60.8365 11.4485 60.58 11.1941C60.3235 10.9397 60.1795 10.5946 60.1795 10.2348C60.1723 10.0566 60.2034 9.87886 60.2706 9.71341C60.3378 9.54796 60.4395 9.39853 60.5692 9.27496C60.8348 9.02446 61.1873 8.88477 61.5538 8.88477C61.9203 8.88477 62.2728 9.02446 62.5385 9.27496C62.6684 9.3954 62.7715 9.54155 62.841 9.70395C62.9105 9.86636 62.9448 10.0414 62.9419 10.2178C62.9475 10.3991 62.9144 10.5795 62.8449 10.7472C62.7754 10.915 62.671 11.0663 62.5385 11.1912C62.409 11.3159 62.256 11.414 62.0882 11.4798C61.9204 11.5456 61.7411 11.5777 61.5607 11.5745L61.547 11.5914ZM60.347 12.8328H62.6821V21.6509H60.347V12.8328Z" fill="white"/>
<path d="M70.6545 21.3537C69.9952 21.6245 69.2893 21.7661 68.5758 21.7709C67.5912 21.7709 66.8664 21.4894 66.3535 20.9366C65.8275 20.2814 65.5644 19.4562 65.6151 18.6201V14.8317H64.121V12.7967H65.6151V9.95117H67.9501V12.8103H70.5485V14.8453H67.9501V18.6201C67.9501 19.3595 68.3091 19.7359 69.0373 19.7359C69.4043 19.7378 69.7664 19.6529 70.0938 19.4884L70.6545 21.3537Z" fill="white"/>
<path d="M80.3718 15.2581C80.988 15.4783 81.5254 15.8735 81.9171 16.3943C82.2924 16.9251 82.4876 17.5606 82.4744 18.2088C82.4899 18.674 82.4 19.1368 82.2112 19.563C82.0225 19.9891 81.7397 20.3678 81.3838 20.6711C80.6567 21.2997 79.6698 21.614 78.423 21.614H72.3204V9.40422H78.0538C79.0686 9.36151 80.0657 9.67761 80.8675 10.2962C81.2204 10.5731 81.5039 10.9272 81.6961 11.3308C81.8882 11.7344 81.9838 12.1766 81.9752 12.6228C82.0041 13.1668 81.8673 13.7069 81.5825 14.1726C81.2978 14.6384 80.8783 15.0084 80.3786 15.2344L80.3718 15.2581ZM74.2178 11.0865V14.6612H78.1393C78.4025 14.6714 78.6651 14.6299 78.9121 14.5391C79.1591 14.4483 79.3856 14.31 79.5786 14.1321C79.7566 13.9712 79.8971 13.7738 79.9904 13.5536C80.0837 13.3333 80.1275 13.0956 80.1188 12.8569C80.1259 12.6146 80.078 12.3739 79.9786 12.1526C79.8791 11.9312 79.7308 11.7349 79.5444 11.5782C79.1182 11.2309 78.5775 11.0521 78.0264 11.0763L74.2178 11.0865ZM78.3854 19.9996C78.968 20.0298 79.5391 19.8312 79.9752 19.4468C80.1667 19.2714 80.3185 19.0576 80.4205 18.8196C80.5225 18.5817 80.5723 18.3249 80.5667 18.0664C80.5718 17.8165 80.5232 17.5684 80.4242 17.3385C80.3252 17.1087 80.1779 16.9025 79.9923 16.7335C79.7785 16.5429 79.529 16.396 79.258 16.3012C78.9869 16.2063 78.6997 16.1654 78.4128 16.1806H74.211V19.9894H78.3957L78.3854 19.9996Z" fill="white"/>
<path d="M88.5761 21.8634C87.956 21.8811 87.3388 21.7733 86.7622 21.5464C86.1855 21.3196 85.6615 20.9785 85.2222 20.544C84.7825 20.116 84.4366 19.6027 84.206 19.036C83.9754 18.4694 83.8651 17.8616 83.882 17.2508C83.866 16.6411 83.9768 16.0346 84.2074 15.4692C84.4379 14.9038 84.7834 14.3915 85.2222 13.9643C86.133 13.1188 87.3338 12.6484 88.5812 12.6484C89.8286 12.6484 91.0294 13.1188 91.9402 13.9643C92.3799 14.3923 92.7259 14.9057 92.9565 15.4723C93.1871 16.039 93.2974 16.6467 93.2804 17.2576C93.2964 17.8673 93.1857 18.4737 92.9551 19.0391C92.7245 19.6046 92.3791 20.1168 91.9402 20.544C91.5009 20.9785 90.9769 21.3196 90.4003 21.5464C89.8236 21.7733 89.2064 21.8811 88.5863 21.8634H88.5761ZM90.6616 19.3604C90.9334 19.0842 91.1465 18.7567 91.288 18.3972C91.4296 18.0376 91.4968 17.6535 91.4855 17.2677C91.4979 16.8777 91.4314 16.4892 91.2899 16.1251C91.1484 15.761 90.9347 15.4288 90.6616 15.148C90.3926 14.8709 90.068 14.6529 89.7088 14.508C89.3495 14.3631 88.9637 14.2946 88.5761 14.3069C88.1899 14.2937 87.8053 14.3618 87.4476 14.5068C87.0899 14.6518 86.7672 14.8703 86.5008 15.148C86.2311 15.4307 86.0204 15.7635 85.8807 16.1273C85.7411 16.4911 85.6753 16.8787 85.6872 17.2677C85.6765 17.6526 85.7429 18.0357 85.8826 18.3949C86.0223 18.7542 86.2324 19.0823 86.5008 19.3604C86.7669 19.6386 87.0895 19.8578 87.4472 20.0034C87.8049 20.1489 88.1897 20.2176 88.5761 20.2049C88.9639 20.2165 89.3499 20.1473 89.7091 20.0019C90.0683 19.8564 90.3928 19.6379 90.6616 19.3604Z" fill="white"/>
<path d="M99.3158 21.8634C98.6958 21.8811 98.0785 21.7733 97.5019 21.5464C96.9252 21.3196 96.4013 20.9785 95.9619 20.544C95.5223 20.116 95.1763 19.6027 94.9457 19.036C94.7151 18.4694 94.6048 17.8616 94.6217 17.2508C94.6058 16.6411 94.7165 16.0346 94.9471 15.4692C95.1777 14.9038 95.5231 14.3915 95.9619 13.9643C96.8728 13.1188 98.0736 12.6484 99.321 12.6484C100.568 12.6484 101.769 13.1188 102.68 13.9643C103.12 14.3923 103.466 14.9057 103.696 15.4723C103.927 16.039 104.037 16.6467 104.02 17.2576C104.037 17.8684 103.927 18.4762 103.696 19.0428C103.466 19.6095 103.12 20.1228 102.68 20.5508C102.241 20.9853 101.717 21.3264 101.14 21.5532C100.563 21.78 99.9462 21.8879 99.3261 21.8701L99.3158 21.8634ZM101.401 19.3604C101.673 19.0842 101.886 18.7567 102.028 18.3972C102.169 18.0376 102.237 17.6535 102.225 17.2677C102.238 16.8777 102.171 16.4892 102.03 16.1251C101.888 15.761 101.674 15.4288 101.401 15.148C101.132 14.8709 100.808 14.6529 100.449 14.508C100.089 14.3631 99.7034 14.2946 99.3158 14.3069C98.9297 14.2937 98.5451 14.3618 98.1874 14.5068C97.8297 14.6518 97.507 14.8703 97.2406 15.148C96.9704 15.4305 96.7591 15.7633 96.6189 16.127C96.4787 16.4908 96.4123 16.8784 96.4235 17.2677C96.4135 17.6528 96.4805 18.036 96.6208 18.3952C96.761 18.7544 96.9717 19.0825 97.2406 19.3604C97.5067 19.6386 97.8292 19.8578 98.1869 20.0034C98.5446 20.1489 98.9294 20.2176 99.3158 20.2049C99.7036 20.2165 100.09 20.1473 100.449 20.0019C100.808 19.8564 101.133 19.6379 101.401 19.3604Z" fill="white"/>
<path d="M108.949 17.9192L107.763 19.1707V21.633H105.92V8.9043H107.763V16.8576L111.452 12.8623H113.633L110.105 16.6609L114.046 21.633H111.934L108.949 17.9192Z" fill="white"/>
</g>
<defs>
<clipPath id="clip0_435_5885">
<rect width="113.39" height="21.0958" fill="white" transform="translate(0.657043 0.792969)"/>
</clipPath>
</defs>
</svg>
