<svg width="95" height="25" viewBox="0 0 95 25" fill="none" xmlns="http://www.w3.org/2000/svg">
<g clip-path="url(#clip0_435_5878)">
<path d="M15.0311 0.607501C12.4697 0.616433 10.1072 1.47407 8.19863 2.91925C6.29092 4.36355 4.83624 6.39539 4.0921 8.74907C4.06196 8.84553 4.01545 8.9341 3.95688 9.01214C3.89659 9.09107 3.82425 9.15859 3.74243 9.21296C2.56249 9.9943 1.59184 11.0729 0.93555 12.3453C0.278402 13.6169 -0.0643827 15.0822 0.011409 16.6362C0.119929 18.8828 1.12245 20.8638 2.65034 22.2801C4.17737 23.6972 6.23063 24.5504 8.44065 24.5426H15.112H21.7834C23.9926 24.5346 26.0398 23.6551 27.5582 22.2169C29.0766 20.777 30.0654 18.7785 30.1584 16.53C30.2247 14.9761 29.8707 13.5134 29.205 12.2454C28.5401 10.9782 27.5625 9.90661 26.3783 9.13491C26.2947 9.07967 26.2215 9.01214 26.1621 8.93497C26.1018 8.85693 26.0562 8.76923 26.0252 8.67277C25.2647 6.32436 23.7971 4.30304 21.8782 2.87102C19.961 1.43987 17.5925 0.598018 15.0311 0.607501ZM15.0414 3.59349C16.9319 3.58659 18.7268 4.22499 20.1849 5.32466C21.6439 6.42521 22.7644 7.98701 23.3079 9.82944L23.425 10.2284L23.543 10.6274C23.574 10.7309 23.6231 10.8256 23.6877 10.9098C23.7514 10.994 23.8315 11.065 23.9228 11.1203L24.2751 11.3316L24.6282 11.5438C25.4731 12.0507 26.1423 12.7601 26.591 13.5932C27.0397 14.4254 27.2671 15.3804 27.2301 16.3801C27.1758 17.8314 26.5342 19.1179 25.5515 20.043C24.5679 20.9682 23.2415 21.532 21.8161 21.5364L15.1017 21.561L8.38725 21.5839C6.96185 21.589 5.63119 21.0348 4.64159 20.1158C3.65199 19.1977 3.00346 17.9156 2.93886 16.4652C2.89408 15.4655 3.11628 14.5096 3.55897 13.673C4.00167 12.8373 4.66657 12.1235 5.50889 11.6105L5.86029 11.3965L6.21082 11.1825C6.30125 11.1264 6.38049 11.0545 6.44423 10.9703C6.50796 10.8861 6.55705 10.7897 6.58633 10.6862L6.70174 10.2863L6.81715 9.88732C7.34683 8.04138 8.45787 6.47081 9.90911 5.36061C11.3595 4.25042 13.1501 3.59974 15.0414 3.59349Z" fill="white"/>
<path d="M12.757 10.8438C12.757 11.0191 12.6881 11.1787 12.5752 11.2945C12.4624 11.4103 12.3065 11.4822 12.1334 11.483L11.5038 11.4848L10.8734 11.4874C10.7011 11.4874 10.5452 11.4164 10.4316 11.3015C10.3179 11.1875 10.2472 11.0288 10.2464 10.8534L10.2438 10.2115L10.2412 9.56958C10.2412 9.39419 10.311 9.23459 10.4238 9.11884C10.5366 9.00308 10.6925 8.93117 10.8656 8.9303L11.4952 8.92854L12.1257 8.92591C12.2979 8.92591 12.4538 8.99782 12.5675 9.11182C12.6812 9.2267 12.7518 9.38542 12.7527 9.56081L12.7553 10.2027L12.757 10.8438ZM16.3215 10.8438C16.3224 11.0191 16.2526 11.1787 16.1398 11.2945C16.027 11.4103 15.8711 11.4822 15.698 11.483L15.0684 11.4848L14.4379 11.4874C14.2657 11.4874 14.1098 11.4164 13.9961 11.3015C13.8824 11.1875 13.8118 11.0288 13.8109 10.8534L13.8083 10.2115L13.8066 9.56958C13.8057 9.39419 13.8755 9.23459 13.9883 9.11884C14.1012 9.00308 14.2579 8.93117 14.4302 8.9303L15.0598 8.92854L15.6902 8.92591C15.8625 8.92591 16.0183 8.99782 16.132 9.11182C16.2457 9.2267 16.3163 9.38542 16.3172 9.56081L16.3198 10.2027L16.3215 10.8438ZM19.8868 10.8446C19.8868 11.02 19.8171 11.1796 19.7042 11.2954C19.5914 11.4111 19.4355 11.483 19.2624 11.4839L18.6328 11.4857L18.0024 11.4874C17.8301 11.4883 17.6734 11.4173 17.5597 11.3024C17.446 11.1884 17.3754 11.0288 17.3754 10.8534L17.3728 10.2115L17.371 9.57046C17.3702 9.39419 17.44 9.23459 17.5528 9.11884C17.6656 9.00308 17.8215 8.93117 17.9946 8.9303L18.6242 8.92854L19.2546 8.92591C19.4278 8.92241 19.5862 8.98905 19.7025 9.10218C19.8188 9.21442 19.8937 9.37139 19.898 9.54765V9.55467V9.56081L19.892 10.2027L19.8868 10.8446ZM12.7586 14.4722C12.7586 14.6476 12.6897 14.8072 12.576 14.923C12.4632 15.0387 12.3082 15.1106 12.1351 15.1115L11.5055 15.1133L10.875 15.1159C10.7028 15.1159 10.5469 15.0449 10.4332 14.93C10.3195 14.816 10.2489 14.6573 10.2472 14.4819L10.2454 13.8391L10.2428 13.198C10.2428 13.0227 10.3126 12.8631 10.4254 12.7473C10.5383 12.6315 10.6942 12.5596 10.8664 12.5588L11.4969 12.5561L12.1273 12.5544C12.2996 12.5544 12.4554 12.6263 12.5691 12.7403C12.6828 12.8552 12.7534 13.0139 12.7543 13.1893L12.7569 13.8312L12.7586 14.4722ZM16.3231 14.4722C16.3231 14.6476 16.2542 14.8072 16.1414 14.923C16.0286 15.0387 15.8727 15.1106 15.6996 15.1115L15.07 15.1133L14.4396 15.1159C14.2673 15.1159 14.1114 15.0449 13.9977 14.93C13.884 14.816 13.8134 14.6573 13.8125 14.4819L13.81 13.8391L13.8074 13.198C13.8074 13.0227 13.8771 12.8631 13.99 12.7473C14.1028 12.6315 14.2587 12.5596 14.4318 12.5588L15.0614 12.5561L15.6918 12.5544C15.8641 12.5544 16.02 12.6263 16.1337 12.7403C16.2474 12.8552 16.318 13.0139 16.3188 13.1893L16.3214 13.8312L16.3231 14.4722ZM19.8877 14.4722C19.8877 14.6476 19.8188 14.8072 19.706 14.923C19.5931 15.0387 19.4372 15.1106 19.2641 15.1115L18.6345 15.1133L18.0041 15.1159C17.8318 15.1159 17.6751 15.0457 17.5614 14.9309C17.4477 14.8169 17.3771 14.6573 17.3771 14.4819L17.3745 13.8391L17.3719 13.198C17.3719 13.0227 17.4408 12.8631 17.5545 12.7473C17.6673 12.6315 17.8232 12.5596 17.9963 12.5588L18.6259 12.5561L19.2564 12.5544C19.4286 12.5544 19.5845 12.6263 19.6982 12.7403C19.8119 12.8552 19.8825 13.0139 19.8834 13.1893L19.886 13.8312L19.8877 14.4722ZM12.7604 18.0999C12.7612 18.2753 12.6914 18.4358 12.5786 18.5515C12.4658 18.6664 12.3099 18.7392 12.1368 18.7392L11.5072 18.7409L10.8767 18.7427C10.7036 18.7436 10.5477 18.6725 10.434 18.5577C10.3204 18.4437 10.2497 18.2849 10.2489 18.1087L10.2472 17.4668L10.2446 16.8257C10.2446 16.6503 10.3143 16.4907 10.4272 16.375C10.54 16.2592 10.6959 16.1873 10.8681 16.1864L11.4977 16.1838L12.129 16.182C12.3013 16.1812 12.4572 16.2531 12.5709 16.3671C12.6845 16.482 12.7552 16.6416 12.756 16.817L12.7578 17.4589L12.7604 18.0999ZM16.3249 18.0999C16.3257 18.2753 16.256 18.4358 16.1431 18.5515C16.0303 18.6664 15.8744 18.7392 15.7013 18.7392L15.0717 18.7409L14.4413 18.7427C14.2682 18.7436 14.1123 18.6725 13.9986 18.5577C13.8849 18.4437 13.8143 18.2849 13.8134 18.1087L13.8117 17.4668L13.8091 16.8257C13.8091 16.6503 13.8789 16.4907 13.9917 16.375C14.1045 16.2592 14.2604 16.1873 14.4327 16.1864L15.0631 16.1838L15.6936 16.182C15.8658 16.1812 16.0217 16.2531 16.1354 16.3671C16.2491 16.482 16.3197 16.6416 16.3206 16.817L16.3231 17.4589L16.3249 18.0999ZM19.8893 18.0999C19.8902 18.2753 19.8204 18.4358 19.7076 18.5515C19.5948 18.6664 19.4389 18.7392 19.2658 18.7392L18.6362 18.7409L18.0057 18.7427C17.8326 18.7436 17.6767 18.6725 17.563 18.5577C17.4493 18.4437 17.3787 18.2849 17.3779 18.1087L17.3761 17.4668L17.3735 16.8257C17.3735 16.6503 17.4425 16.4899 17.5553 16.3741C17.6681 16.2583 17.8249 16.1864 17.998 16.1864L18.6276 16.1838L19.258 16.182C19.4303 16.1812 19.5861 16.2531 19.6998 16.3671C19.8135 16.482 19.8841 16.6416 19.885 16.817L19.8876 17.4589L19.8893 18.0999Z" fill="white"/>
<path d="M44.9123 15.1919C45.1672 14.9104 45.3576 14.578 45.4833 14.1931C45.6108 13.809 45.6728 13.3731 45.6711 12.8856C45.6693 12.3971 45.6039 11.9613 45.4747 11.5789C45.3455 11.1948 45.1526 10.8634 44.8968 10.5836C44.641 10.3048 44.3481 10.0952 44.0209 9.95574C43.6927 9.81719 43.3293 9.74791 42.9305 9.7496C42.5309 9.75142 42.1683 9.82245 41.8418 9.96363C41.5154 10.1048 41.2243 10.3162 40.9702 10.5977C40.7153 10.8791 40.5241 11.2115 40.3984 11.5956C40.2718 11.9806 40.2097 12.4164 40.2114 12.9048C40.2132 13.3915 40.2778 13.8274 40.4078 14.2115C40.5362 14.5938 40.7291 14.9253 40.9849 15.2059C41.2415 15.4848 41.5335 15.6944 41.8617 15.8329C42.1889 15.9723 42.5524 16.0416 42.952 16.0399C43.3508 16.0381 43.7134 15.9671 44.0398 15.8259C44.3671 15.6847 44.6573 15.4725 44.9123 15.1919ZM46.5702 6.89438C47.0534 7.17325 47.4875 7.51086 47.8733 7.90811C48.2574 8.30448 48.5916 8.76136 48.8776 9.27612C49.1626 9.79088 49.3771 10.3486 49.5201 10.9467C49.6639 11.5456 49.7371 12.1866 49.739 12.8698C49.7414 13.552 49.6725 14.1931 49.533 14.7929C49.3935 15.3927 49.1824 15.9513 48.9017 16.4678C48.62 16.9852 48.2876 17.443 47.906 17.8428C47.5236 18.2427 47.0921 18.583 46.6107 18.8653C46.1284 19.1477 45.6194 19.3599 45.0828 19.502C44.5462 19.6432 43.9838 19.7151 43.3921 19.7177C42.6342 19.7203 41.9573 19.6072 41.3587 19.3775C40.7592 19.1495 40.2373 18.8031 39.7894 18.3418L39.7903 20.998V23.6542C39.7912 23.8936 39.6964 24.1102 39.544 24.2681C39.3898 24.4251 39.1779 24.5233 38.9428 24.5241L37.5183 24.5285L36.0946 24.5329C35.8595 24.5338 35.6459 24.4382 35.4917 24.2821C35.3375 24.126 35.2411 23.9094 35.2411 23.6709L35.2187 15.3734L35.1971 7.07591C35.1963 6.83738 35.291 6.62078 35.4443 6.46293C35.5977 6.30509 35.8104 6.20775 36.0446 6.20687L37.3607 6.20249L38.6775 6.1981C38.9127 6.19723 39.1254 6.29369 39.2796 6.4489C39.4346 6.60587 39.5302 6.8216 39.5311 7.061L39.5259 7.33723L39.5207 7.61346C39.9419 7.10046 40.4716 6.71461 41.1089 6.4568C41.7462 6.1981 42.4921 6.06832 43.3473 6.06474C43.9373 6.06306 44.5006 6.13058 45.038 6.26913C45.5763 6.40681 46.0862 6.6164 46.5702 6.89438ZM52.6578 1.62773L54.0815 1.62247L55.5069 1.61719C55.7412 1.61633 55.9539 1.71279 56.1089 1.86888C56.264 2.02498 56.3596 2.24158 56.3604 2.48098V10.6601V18.8392C56.3613 19.0777 56.2665 19.2943 56.1132 19.4522C55.9599 19.6091 55.7481 19.7065 55.5121 19.7074L54.0884 19.7126L52.6639 19.7179C52.4287 19.7188 52.216 19.6232 52.0618 19.4662C51.9077 19.3101 51.8121 19.0935 51.8112 18.855V10.675L51.8103 2.49589C51.8095 2.25736 51.9042 2.04076 52.0575 1.88291C52.21 1.72594 52.4236 1.62861 52.6578 1.62773ZM79.564 7.64977L78.4065 10.5314L77.249 13.4138L76.0914 16.2963L74.933 19.1787C74.9003 19.2603 74.8563 19.334 74.8047 19.3997C74.7513 19.4655 74.6901 19.5225 74.6212 19.569C74.5532 19.6163 74.4783 19.6532 74.3982 19.6786C74.3189 19.7031 74.2354 19.7172 74.1492 19.7172H73.2587H72.3681L71.4767 19.7181H70.5862C70.5001 19.7181 70.4156 19.7049 70.3355 19.6803C70.2563 19.6558 70.1805 19.619 70.1116 19.5734C70.0436 19.526 69.9816 19.4699 69.9282 19.4041C69.8748 19.3392 69.8308 19.2647 69.7973 19.184L68.6363 16.3024L67.4761 13.4217L66.3143 10.541L65.1542 7.65942C65.0956 7.51735 65.0784 7.37178 65.093 7.23235C65.1085 7.0938 65.1559 6.96226 65.2308 6.84738C65.3049 6.73338 65.4065 6.63779 65.5262 6.56939C65.6459 6.50099 65.7846 6.46241 65.9362 6.46153L66.6416 6.4589L67.3461 6.45627L68.0515 6.45364L68.756 6.45181C68.8438 6.45101 68.9282 6.46416 69.0092 6.48959C69.0902 6.51502 69.1668 6.55273 69.2357 6.60009C69.3055 6.64744 69.3675 6.70619 69.4209 6.77284C69.4734 6.83949 69.5173 6.9149 69.5501 6.99821L70.2813 8.87484L71.0125 10.7532L71.7446 12.6307L72.4767 14.5082L73.2303 12.6316L73.9856 10.755L74.7409 8.87835L75.4963 7.00172C75.5281 6.92104 75.5721 6.84563 75.6255 6.77898C75.678 6.71233 75.7409 6.65358 75.8089 6.60535C75.877 6.55712 75.9527 6.51853 76.0311 6.49222C76.1112 6.46592 76.1948 6.45181 76.2809 6.45181L76.9044 6.45276L77.528 6.45364L78.1507 6.45452L78.7743 6.45539C78.9258 6.45539 79.0654 6.49398 79.1859 6.56062C79.3057 6.62815 79.4064 6.72373 79.4822 6.83686C79.5572 6.95086 79.6071 7.08327 79.6226 7.22183C79.639 7.36038 79.6209 7.50683 79.564 7.64977ZM89.3837 15.0325C89.6378 14.7519 89.829 14.4169 89.9547 14.0276C90.0813 13.64 90.1442 13.1971 90.1426 12.7017C90.1408 12.2141 90.0753 11.78 89.9461 11.3977C89.8169 11.0171 89.624 10.6882 89.3673 10.412C89.1115 10.1375 88.8196 9.93145 88.4914 9.79377C88.1642 9.65697 87.8007 9.58945 87.4011 9.59031C87.0023 9.59208 86.6388 9.66223 86.3133 9.80166C85.986 9.94109 85.6958 10.1498 85.4417 10.426C85.1868 10.7031 84.9955 11.0329 84.8698 11.4161C84.7432 11.7984 84.6812 12.2334 84.6828 12.721C84.6846 13.2173 84.7492 13.6584 84.8793 14.046C85.0076 14.4336 85.2005 14.7668 85.4563 15.0466C85.713 15.3263 86.005 15.535 86.3331 15.6736C86.6604 15.8139 87.0238 15.8823 87.4235 15.8814C87.8222 15.8797 88.184 15.8086 88.5113 15.6674C88.8385 15.5254 89.1288 15.314 89.3837 15.0325ZM83.6726 18.6981C83.1137 18.4078 82.6141 18.0597 82.1758 17.6546C81.7374 17.2494 81.3601 16.7882 81.0423 16.269C80.7254 15.7499 80.4877 15.1965 80.3275 14.6081C80.1681 14.0188 80.0872 13.3953 80.0853 12.7376C80.0829 12.0869 80.1595 11.4696 80.3154 10.8838C80.4704 10.298 80.7056 9.74466 81.0191 9.22289C81.3326 8.702 81.7064 8.2381 82.1396 7.83208C82.5737 7.42694 83.0672 7.0788 83.621 6.78854C84.1748 6.49828 84.7656 6.27992 85.3935 6.13347C86.0222 5.98703 86.6871 5.91161 87.3899 5.90972C88.0918 5.90723 88.7576 5.9765 89.3897 6.11857C90.0202 6.26063 90.6162 6.4746 91.1752 6.76135C91.735 7.04899 92.2336 7.39186 92.6695 7.79262C93.1053 8.19338 93.4808 8.65113 93.7934 9.16677C94.106 9.68065 94.342 10.2314 94.4997 10.818C94.6573 11.4047 94.7374 12.0273 94.7392 12.6859C94.7417 13.3436 94.6659 13.9679 94.5126 14.5581C94.3584 15.1474 94.1276 15.7034 93.8167 16.2243C93.5075 16.7452 93.1363 17.21 92.703 17.6177C92.269 18.0255 91.7729 18.3763 91.2156 18.6709C90.6575 18.9656 90.0641 19.1874 89.4345 19.3356C88.8041 19.4838 88.1375 19.5592 87.4347 19.562C86.7413 19.5645 86.0799 19.4935 85.4537 19.3497C84.8259 19.2058 84.2333 18.9884 83.6726 18.6981ZM62.7509 5.5148H61.3461H59.9423C59.7028 5.5148 59.4849 5.41571 59.3273 5.25523C59.1706 5.09475 59.0724 4.87377 59.0724 4.6291V3.56539V2.50255C59.0724 2.25789 59.1706 2.0369 59.3273 1.8773C59.4849 1.71682 59.7028 1.61773 59.9423 1.61773H61.3461H62.7509C62.9903 1.61773 63.2082 1.71682 63.3658 1.8773C63.5226 2.0369 63.6199 2.25789 63.6199 2.50255V3.56539V4.6291C63.6199 4.87377 63.5226 5.09475 63.3658 5.25523C63.2082 5.41571 62.9903 5.5148 62.7509 5.5148ZM62.7509 19.7178H61.3461H59.9423C59.7028 19.7178 59.4849 19.6187 59.3273 19.4582C59.1706 19.2977 59.0724 19.0776 59.0724 18.8321V13.0891V7.34697C59.0724 7.1023 59.1706 6.88132 59.3273 6.72084C59.4849 6.56036 59.7028 6.46215 59.9423 6.46215H61.3461H62.7509C62.9903 6.46215 63.2082 6.56036 63.3658 6.72084C63.5226 6.88132 63.6199 7.1023 63.6199 7.34697V13.0891V18.8321C63.6199 19.0776 63.5226 19.2977 63.3658 19.4582C63.2082 19.6187 62.9903 19.7178 62.7509 19.7178Z" fill="white"/>
</g>
<defs>
<clipPath id="clip0_435_5878">
<rect width="94.931" height="24.1642" fill="white" transform="translate(-0.000183105 0.609375)"/>
</clipPath>
</defs>
</svg>
