<svg width="102" height="26" viewBox="0 0 102 26" fill="none" xmlns="http://www.w3.org/2000/svg">
<g clip-path="url(#clip0_435_5864)">
<mask id="mask0_435_5864" style="mask-type:luminance" maskUnits="userSpaceOnUse" x="0" y="0" width="102" height="25">
<path d="M101.744 0.208984H0.220825V24.9595H101.744V0.208984Z" fill="white"/>
</mask>
<g mask="url(#mask0_435_5864)">
<path d="M9.87758 12.9151C11.7829 12.1219 13.0456 10.436 13.0456 7.64839C13.0456 2.74081 9.59484 1.82031 6.04053 1.82031C4.05789 1.82031 1.84346 2.05044 0.220825 2.38342V19.0762H4.85516V13.2725C5.08696 13.3231 5.29243 13.3492 5.57692 13.3753L9.00131 19.0762H13.9974L9.87758 12.9151ZM6.01418 10.3593C5.65419 10.3593 5.2415 10.3088 4.85516 10.2826V5.09261C5.21516 5.04206 5.6015 5.04206 6.04053 5.04206C7.25047 5.04206 8.56405 5.52845 8.56405 7.75127C8.56405 9.97401 7.40498 10.3593 6.01418 10.3593Z" fill="white"/>
<path d="M23.7226 5.80664V15.9304C23.259 16.0332 22.7691 16.1099 22.1527 16.1099C21.2255 16.0332 20.3755 15.6497 20.3755 14.1417V5.80664H15.9203V14.3962C15.9203 18.0782 18.5983 19.2794 21.4573 19.2794C24.3162 19.2794 26.9679 18.5123 28.1533 18.0782V5.80664H23.7244H23.7226Z" fill="white"/>
<path d="M36.9407 5.60156C34.6753 5.60156 32.3064 6.11239 30.761 6.6493V24.9581C31.5793 24.409 32.575 24.1109 33.6445 24.1109C34.1274 24.1109 34.656 24.1841 35.2162 24.3288V19.2294C35.808 19.3323 36.4262 19.3828 36.967 19.3828C41.9877 19.3828 43.4558 16.0338 43.4558 12.2769C43.4558 6.93349 40.2632 5.60505 36.9407 5.60505V5.60156ZM36.3998 16.0321C36.0398 16.0321 35.6535 15.9816 35.2145 15.8787V9.02725C35.729 8.90001 36.219 8.87385 36.6053 8.87385C38.2279 8.87385 38.9742 10.075 38.9742 12.249C38.9742 14.5746 38.1507 16.0321 36.3998 16.0321Z" fill="white"/>
<path d="M45.361 5.80693V19.0757H49.8934V5.80693H45.361ZM45.361 0.208984V4.45234H49.8934V0.208984H45.361Z" fill="white"/>
<path d="M62.706 15.5703C61.3926 15.9276 60.4144 16.081 59.5376 16.081C57.6835 16.081 56.4735 15.3401 56.4735 12.3991C56.4735 9.458 57.6062 8.76938 59.4608 8.76938C60.2841 8.76938 61.057 8.87221 62.216 9.22962L62.8339 6.06018C61.4431 5.62607 60.1051 5.47266 58.9707 5.47266C55.1846 5.47266 52.0692 7.31367 52.0692 12.3747C52.0692 17.4356 55.2372 19.2522 58.8425 19.2522C60.3105 19.2522 61.5716 19.0482 63.0393 18.588L62.7042 15.572L62.706 15.5703Z" fill="white"/>
<path d="M70.7573 5.44727C69.0572 5.44727 67.1013 5.80465 65.3748 6.49504L66.0966 9.40996C67.1523 9.05254 68.5936 8.84683 69.6511 8.84683C70.8101 8.84683 71.5566 9.12752 71.5566 10.5588V11.4026C70.7573 11.1725 69.9093 11.0958 69.059 11.0958C66.562 11.0958 64.2175 12.1435 64.2175 15.2624C64.2175 18.5347 67.1277 19.328 70.1657 19.328C72.3799 19.328 74.6715 18.8416 75.9854 18.2802V10.5082C75.9854 6.59612 73.6164 5.44727 70.7573 5.44727ZM71.5566 16.4392C71.1698 16.5664 70.7062 16.6188 70.2937 16.6188C69.3665 16.6188 68.4657 16.3119 68.4657 15.1613C68.4921 13.934 69.3418 13.4737 70.3201 13.4737C70.7326 13.4737 71.1698 13.5505 71.5566 13.7039V16.4392Z" fill="white"/>
<path d="M88.6596 6.25443C88.3104 7.12266 87.9589 7.99258 87.6097 8.86075C87.5287 9.05953 87.4495 9.26 87.3621 9.45703C86.6896 9.03512 85.9378 8.72128 85.1474 8.61671C84.1568 8.48423 83.2172 8.71435 82.4062 9.28091V18.9444H77.9509V5.67739H81.9162L81.9937 7.10868C82.1779 6.86289 82.3833 6.64494 82.6116 6.45496C83.4003 5.78548 84.4167 5.44727 85.4953 5.44727C85.959 5.44727 87.5851 5.61637 88.6578 6.25443H88.6596Z" fill="white"/>
<path d="M97.2891 1.04883V5.67572C96.6712 5.54846 96.0532 5.49615 95.5122 5.49615C90.6972 5.49615 89.2289 9.12586 89.2289 12.5516C89.2289 17.895 92.3438 19.199 95.6929 19.199C97.8566 19.199 100.122 18.9427 101.744 18.3552V1.04883H97.2891ZM97.2891 15.9023C96.8766 16.0052 96.4904 16.0557 96.1829 16.0557C94.6642 16.0557 93.7364 14.9818 93.7364 12.5794C93.7364 10.381 94.5093 8.6168 96.1055 8.6168C96.4412 8.6168 96.8519 8.64296 97.2909 8.74403V15.9023H97.2891Z" fill="white"/>
</g>
</g>
<defs>
<clipPath id="clip0_435_5864">
<rect width="101.523" height="25.0512" fill="white" transform="translate(0.221924 0.212891)"/>
</clipPath>
</defs>
</svg>
