<svg width="114" height="14" viewBox="0 0 114 14" fill="none" xmlns="http://www.w3.org/2000/svg">
<g clip-path="url(#clip0_435_5838)">
<path d="M18.6071 4.04379C18.6071 6.07559 19.8792 7.07187 21.5443 7.74339C22.4249 8.10521 23.2575 8.38001 23.2575 9.60178C23.2575 10.2884 22.7514 10.9076 22.0502 10.9076C21.1847 10.9076 20.7774 10.3588 20.4509 9.79156L18.5906 10.6328C19.0474 12.1808 20.3201 13.3502 22.0012 13.3502H22.1477C24.057 13.3502 25.5912 11.6828 25.5912 9.60178C25.5912 7.94948 25.0692 6.96935 23.8455 6.19402C23.5029 5.97222 22.6536 5.57484 22.2131 5.38749C21.5276 5.07757 20.9402 4.56265 20.9402 3.9426C20.9402 3.3051 21.4303 2.68592 22.0339 2.68592C22.3602 2.68592 22.8493 2.80718 23.111 3.40826L25.2163 2.34329C24.7919 0.930887 23.3721 0.208984 22.1804 0.208984C20.0101 0.208984 18.6071 1.72237 18.6071 4.04379Z" fill="white"/>
<path d="M33.3619 0.3125L28.4831 13.2147H30.9964L31.9094 10.8918C31.9266 10.8401 31.9753 10.807 32.0404 10.807H36.4628C36.5282 10.807 36.5769 10.8401 36.5931 10.8918L37.5561 13.2147H40.0536L35.1411 0.3125H33.3619ZM32.8235 8.46673C32.8235 8.43253 32.8235 8.41589 32.8403 8.39673L34.2106 4.76889L34.2598 4.70019L34.2924 4.73465C34.2924 4.75078 34.2924 4.75078 34.3087 4.76889L35.6633 8.39673C35.6798 8.41589 35.6799 8.43253 35.6799 8.44885C35.6799 8.50118 35.6633 8.51757 35.6142 8.51757H32.8895C32.8403 8.51757 32.8235 8.50118 32.8235 8.46673Z" fill="white"/>
<path d="M42.962 0.3125V13.2147H45.2952V8.07176C45.2952 8.00284 45.3283 7.96816 45.394 7.96816H49.7017V5.50802H45.394C45.3283 5.50802 45.2952 5.47335 45.2952 5.40442V2.87602C45.2952 2.80797 45.3283 2.77395 45.394 2.77395H49.7017V0.3125H42.962Z" fill="white"/>
<path d="M53.0746 0.3125V13.2147H59.7976V10.7548H55.5064C55.4406 10.7548 55.4079 10.7208 55.4079 10.6495V8.07176C55.4079 8.00284 55.4406 7.96816 55.5064 7.96816H59.7976V5.50802H55.5064C55.4406 5.50802 55.4079 5.47335 55.4079 5.40442V2.87602C55.4079 2.80797 55.4406 2.77395 55.5064 2.77395H59.7976V0.3125H53.0746Z" fill="white"/>
<path d="M63.4629 6.75713C63.4629 10.4029 66.2536 13.3434 69.7127 13.3434C72.2097 13.3434 73.8247 12.2785 74.788 11.0556V6.18724H69.4515V8.56277H72.3563C72.4055 8.56277 72.4216 8.58065 72.4216 8.61402V10.094C71.9158 10.558 71.0515 10.9008 69.8925 10.9008C67.5584 10.9008 65.7962 9.02663 65.7962 6.75713C65.7962 4.48477 67.5584 2.62724 69.7127 2.62724C70.6917 2.62724 71.9158 3.1618 72.5845 3.72863L74.0208 1.7675C73.7601 1.5265 72.0956 0.167969 69.7127 0.167969C66.2536 0.167969 63.4629 3.10858 63.4629 6.75713Z" fill="white"/>
<path d="M77.3893 6.75713C77.3893 10.4029 80.1804 13.3434 83.6395 13.3434C87.0995 13.3434 89.8899 10.4029 89.8899 6.75713C89.8899 3.10858 87.0995 0.167969 83.6395 0.167969C80.1804 0.167969 77.3893 3.10858 77.3893 6.75713ZM79.7229 6.75713C79.7229 4.48477 81.4859 2.62724 83.6395 2.62724C85.7939 2.62724 87.5554 4.48477 87.5554 6.75713C87.5554 9.02663 85.7939 10.8842 83.6395 10.8842C81.4859 10.8842 79.7229 9.02663 79.7229 6.75713Z" fill="white"/>
<path d="M93.3605 0.296875V13.2154H99.7904V10.7555H95.8901C95.7596 10.7555 95.6936 10.6866 95.6936 10.5499V0.296875H93.3605Z" fill="white"/>
<path d="M103.142 0.3125V13.2147H107.156C110.567 13.2147 113.308 10.2726 113.308 6.7647C113.308 3.25507 110.567 0.3125 107.156 0.3125H103.142ZM105.475 10.6495V2.87602C105.475 2.80797 105.507 2.77395 105.574 2.77395H107.254C109.474 2.77395 110.975 4.40619 110.975 6.7647C110.975 9.12062 109.376 10.7548 107.156 10.7548H105.574C105.507 10.7548 105.475 10.7208 105.475 10.6495Z" fill="white"/>
<path d="M10.4416 6.12305C10.4737 6.32763 10.4913 6.53766 10.4913 6.75205C10.4913 6.97081 10.4728 7.18498 10.4396 7.39348H11.3338C11.0344 9.99236 8.93474 12.0058 6.38835 12.0058C5.17837 12.0058 4.06936 11.5509 3.20637 10.7949L2.23309 11.55C3.32782 12.608 4.78649 13.2535 6.38835 13.2535C9.78532 13.2535 12.539 10.3509 12.539 6.77015C12.539 6.55162 12.5284 6.33592 12.5084 6.12305H12.086V6.12109L10.4416 6.12305Z" fill="white"/>
<path d="M0.243774 6.76833C0.243774 6.97137 0.252878 7.17181 0.270258 7.37006H2.67551C2.67303 7.37748 2.67055 7.38467 2.66806 7.39165H2.8069C2.97429 8.43826 3.54389 9.34035 4.3415 9.91637C4.92601 10.3384 5.63237 10.5859 6.3942 10.5859C8.40388 10.5859 10.033 8.86858 10.033 6.75022C10.033 6.53584 10.0156 6.32581 9.98357 6.12123H9.05726V6.11927H6.0226V7.37006V7.39165H8.72478C8.46779 8.49718 7.52203 9.31744 6.3942 9.31744C6.04101 9.31744 5.70603 9.23652 5.40396 9.0919C4.73545 8.77217 4.23102 8.13929 4.05887 7.37006C4.01708 7.18315 3.99411 6.98817 3.99411 6.78752C3.99411 5.39017 5.06856 4.25737 6.3942 4.25737C6.91352 4.25737 7.39395 4.43185 7.78666 4.72759L8.82326 3.89467C8.17919 3.28531 7.32795 2.91433 6.3942 2.91433C4.58854 2.91433 3.09077 4.30121 2.80504 6.11927H1.44796C1.74445 3.51692 3.84576 1.50018 6.3942 1.50018C7.7639 1.50018 9.00406 2.08293 9.90474 3.02577L10.8313 2.2814C9.7119 1.05177 8.13842 0.285156 6.3942 0.285156C2.99725 0.285156 0.243774 3.18782 0.243774 6.76833Z" fill="white"/>
</g>
<defs>
<clipPath id="clip0_435_5838">
<rect width="113.39" height="13.1849" fill="white" transform="translate(0.243713 0.167969)"/>
</clipPath>
</defs>
</svg>
