<svg width="119" height="36" viewBox="0 0 119 36" fill="none" xmlns="http://www.w3.org/2000/svg">
<path d="M27.1592 13.1602L25.5803 23.0953H29.2419L29.8465 19.2792H36.5314L36.9177 16.8417H30.2329L30.4344 15.5977H37.2536L37.64 13.1602H27.1592Z" fill="white"/>
<path d="M43.3313 22.1424C43.3817 22.7476 43.7512 23.1006 44.339 23.1006H47.228L47.5639 20.9993H47.1944C46.9424 20.9993 46.8921 20.8648 46.9089 20.6967L47.2952 18.2759C47.4799 17.1328 47.1776 15.7207 42.8442 15.7207H42.1723C37.9229 15.7207 37.6038 17.2673 37.4694 18.2087H40.7279C40.7951 17.9901 40.8958 17.469 42.3907 17.469H42.4243C43.7848 17.469 43.9023 17.7548 43.9023 18.007C43.9023 18.2255 43.768 18.36 43.4488 18.3768L40.0728 18.6626C38.8803 18.7634 38.1581 18.9652 37.6542 19.335C37.0159 19.7889 36.848 20.4949 36.848 21.1169C36.848 22.2433 37.6542 23.2183 39.9385 23.2183H40.0728C42.0044 23.2351 42.9786 22.5122 43.3313 22.1424ZM41.3325 21.5036C40.5263 21.5036 40.2744 21.1674 40.2744 20.848C40.2744 20.4781 40.4927 20.2596 41.215 20.1419L43.6 19.7217L43.5496 20.0747C43.3985 20.8816 42.5586 21.5036 41.3325 21.5036Z" fill="white"/>
<path d="M48.8908 15.9286L47.7487 23.1068H51.2758L51.8133 19.7447C51.9813 18.7528 52.6531 18.03 53.8457 18.03C55.055 18.03 55.4245 18.736 55.2901 19.6774L54.7359 23.1068H58.2798L58.9517 18.7865C59.17 17.4416 58.4646 15.7773 55.8444 15.7773H55.7604C53.6609 15.7773 52.418 16.9541 52.166 17.2231L52.3844 15.9455H48.8908V15.9286Z" fill="white"/>
<path d="M69.9365 18.9807C69.8358 19.1992 69.4327 20.6113 66.5941 20.6113C64.293 20.6113 63.6212 19.5355 63.6212 18.4596C63.6212 18.241 63.638 18.0225 63.6716 17.7703C63.8227 16.8794 64.5282 15.6522 67.1652 15.6522C69.9365 15.6522 70.1717 16.8962 70.2053 17.182H74.0348C74.2867 15.7699 73.6485 12.9961 67.5851 12.9961H67.098C61.2529 12.9961 60.0604 15.8539 59.8085 17.6022C59.7413 18.0561 59.7245 18.3419 59.7245 18.7285C59.7245 20.7794 60.917 23.301 66.2078 23.301H66.7117C72.6407 23.301 73.6149 20.4432 73.7493 18.9807H69.9365Z" fill="white"/>
<path d="M78.4529 15.9212H74.9257L73.8004 23.0994H77.3275L77.9154 19.4515C78.0666 18.5101 78.5369 17.9217 79.3767 17.9217C80.3173 17.9217 80.5356 18.6278 80.418 19.3843L80.3844 19.6364H83.7941L83.8948 19.048C84.1468 17.451 83.6597 15.7363 81.3418 15.7363H81.2075C79.4942 15.7363 78.5201 16.8122 78.2513 17.2157L78.4529 15.9212Z" fill="white"/>
<path d="M90.3268 22.1424C90.3772 22.7476 90.7467 23.1006 91.3346 23.1006H94.2235L94.5594 20.9993H94.1899C93.938 20.9993 93.8876 20.8648 93.9044 20.6967L94.2907 18.2759C94.4755 17.1328 94.1731 15.7207 89.8397 15.7207H89.1679C84.9185 15.7207 84.5993 17.2673 84.465 18.2087H87.7234C87.7906 17.9901 87.8914 17.469 89.3862 17.469H89.4198C90.7803 17.469 90.8979 17.7548 90.8979 18.007C90.8979 18.2255 90.7635 18.36 90.4444 18.3768L87.0684 18.6626C85.8758 18.7634 85.1536 18.9652 84.6497 19.335C84.0115 19.7889 83.8435 20.4949 83.8435 21.1169C83.8435 22.2433 84.6497 23.2183 86.934 23.2183H87.0684C88.9999 23.2351 89.9741 22.5122 90.3268 22.1424ZM88.3281 21.5036C87.5219 21.5036 87.2699 21.1674 87.2699 20.848C87.2699 20.4781 87.5051 20.2596 88.2105 20.1419L90.5955 19.7217L90.5452 20.0747C90.394 20.8816 89.5542 21.5036 88.3281 21.5036Z" fill="white"/>
<path d="M95.8038 15.927L95.4679 18.0451H100.12L94.964 21.1551L94.6785 23.1051H103.883L104.219 20.9029H99.4318L104.706 17.8266L104.991 15.9102H95.8038V15.927Z" fill="white"/>
<path d="M111.121 15.7207H110.398C106.182 15.7207 105.141 17.5699 104.906 19.1837C104.872 19.4527 104.856 19.688 104.856 19.9234C104.856 21.6381 105.863 23.3023 109.844 23.3023H110.533C115.101 23.3023 115.689 21.47 115.84 20.4781H112.33C112.246 20.6799 111.91 21.3523 110.264 21.3523H110.247C108.819 21.3523 108.316 20.7471 108.299 20.0242H115.907C115.941 19.8561 115.991 19.4359 115.991 19.1669C115.991 17.4522 115.286 15.7207 111.121 15.7207ZM110.667 17.4858C111.994 17.4858 112.515 17.9061 112.582 18.5617H108.534C108.769 17.9229 109.323 17.4858 110.667 17.4858Z" fill="white"/>
<path d="M5.54041 19.8795C5.54041 19.8795 6.11147 21.7791 8.02624 23.4434C8.02624 23.4434 10.4113 18.6523 16.3067 18.7364C16.3235 18.7195 11.6038 15.7272 5.54041 19.8795Z" fill="white"/>
<path d="M5.54041 19.8795C5.54041 19.8795 6.11147 21.7791 8.02624 23.4434C8.02624 23.4434 10.4113 18.6523 16.3067 18.7364C16.3235 18.7195 11.6038 15.7272 5.54041 19.8795Z" fill="white"/>
<path d="M19.9694 11.6682C19.5159 10.9453 18.9112 10.3065 18.2226 9.78539C16.291 8.35648 13.7548 7.68405 11.3698 7.83535C9.37103 7.95302 7.45627 8.72631 5.91103 10.0207C4.39937 11.2983 3.32442 13.0467 2.85413 14.9799C2.68617 15.7028 2.58539 16.4424 2.58539 17.1989C2.58539 22.3766 6.75083 26.5793 11.9072 26.5793C11.924 26.5793 11.7561 26.4448 11.7393 26.428C11.4034 26.1758 11.0506 25.9405 10.7147 25.6715C10.1772 25.268 9.65657 24.8478 9.15268 24.3939C8.56482 23.8559 7.99375 23.3012 7.47307 22.6792C6.95239 22.0572 6.48209 21.3848 6.12937 20.6451C5.87743 20.1072 5.70947 19.5692 5.60869 18.9976C5.49112 18.3756 5.54151 17.72 5.70947 17.0812C5.86064 16.4424 6.12938 15.8204 6.43171 15.2825C7.97695 12.5255 11.5377 11.0126 14.561 11.6346L12.915 12.9122C17.5508 11.7691 21.3299 16.1566 21.3299 16.1566C21.3299 14.8454 20.8596 13.5846 20.3389 12.4079C20.2549 12.1389 20.1206 11.9035 19.9694 11.6682Z" fill="white"/>
<path d="M19.9694 11.6682C19.5159 10.9453 18.9112 10.3065 18.2226 9.78539C16.291 8.35648 13.7548 7.68405 11.3698 7.83535C9.37103 7.95302 7.45627 8.72631 5.91103 10.0207C4.39937 11.2983 3.32442 13.0467 2.85413 14.9799C2.68617 15.7028 2.58539 16.4424 2.58539 17.1989C2.58539 22.3766 6.75083 26.5793 11.9072 26.5793C11.924 26.5793 11.7561 26.4448 11.7393 26.428C11.4034 26.1758 11.0506 25.9405 10.7147 25.6715C10.1772 25.268 9.65657 24.8478 9.15268 24.3939C8.56482 23.8559 7.99375 23.3012 7.47307 22.6792C6.95239 22.0572 6.48209 21.3848 6.12937 20.6451C5.87743 20.1072 5.70947 19.5692 5.60869 18.9976C5.49112 18.3756 5.54151 17.72 5.70947 17.0812C5.86064 16.4424 6.12938 15.8204 6.43171 15.2825C7.97695 12.5255 11.5377 11.0126 14.561 11.6346L12.915 12.9122C17.5508 11.7691 21.3299 16.1566 21.3299 16.1566C21.3299 14.8454 20.8596 13.5846 20.3389 12.4079C20.2549 12.1389 20.1206 11.9035 19.9694 11.6682Z" fill="white"/>
</svg>
