<svg width="110" height="21" viewBox="0 0 110 21" fill="none" xmlns="http://www.w3.org/2000/svg">
<g clip-path="url(#clip0_435_5906)">
<path d="M20.7507 10.2755C20.7507 11.2538 20.3621 12.1919 19.6704 12.8836C18.9787 13.5753 18.0405 13.9639 17.0623 13.9639H10.6822C10.1499 13.9639 9.62954 14.1218 9.18688 14.4176C8.74427 14.7133 8.39927 15.1337 8.19558 15.6255C7.99185 16.1173 7.93854 16.6585 8.04239 17.1806C8.14625 17.7027 8.40259 18.1823 8.779 18.5587C9.15546 18.9352 9.63502 19.1915 10.1571 19.2954C10.6793 19.3993 11.2205 19.3459 11.7123 19.1422C12.2041 18.9385 12.6245 18.5935 12.9202 18.1509C13.216 17.7083 13.3738 17.1879 13.3738 16.6555V14.9608C13.3738 14.8286 13.4264 14.7019 13.5198 14.6084C13.6133 14.5149 13.74 14.4624 13.8722 14.4624C14.0044 14.4624 14.1313 14.5149 14.2247 14.6084C14.3182 14.7019 14.3707 14.8286 14.3707 14.9608V16.6555C14.3707 17.3851 14.1544 18.0982 13.7491 18.7047C13.3438 19.3113 12.7677 19.784 12.0937 20.0632C11.4198 20.3424 10.6782 20.4154 9.96265 20.2731C9.24719 20.1308 8.58997 19.7795 8.07411 19.2636C7.5583 18.7478 7.20701 18.0906 7.06464 17.3751C6.92233 16.6596 6.99537 15.918 7.27457 15.244C7.55372 14.5701 8.02648 13.994 8.63306 13.5887C9.23964 13.1834 9.95274 12.9671 10.6822 12.9671H17.0623C17.7761 12.9671 18.4607 12.6835 18.9655 12.1788C19.4703 11.674 19.7538 10.9894 19.7538 10.2755C19.7538 9.56165 19.4703 8.87705 18.9655 8.37226C18.4607 7.86753 17.7761 7.58395 17.0623 7.58395H15.3676C15.2354 7.58395 15.1086 7.53144 15.0151 7.43796C14.9216 7.34447 14.8691 7.21771 14.8691 7.08551C14.8691 6.95331 14.9216 6.8265 15.0151 6.73307C15.1086 6.63958 15.2354 6.58707 15.3676 6.58707H17.0623C18.0405 6.58707 18.9787 6.97566 19.6704 7.66737C20.3621 8.35907 20.7507 9.29725 20.7507 10.2755ZM7.99069 8.58083C7.99069 8.44863 7.93818 8.32182 7.8447 8.22839C7.75121 8.1349 7.62445 8.08239 7.49225 8.08239C7.36005 8.08239 7.23324 8.1349 7.1398 8.22839C7.04632 8.32182 6.99381 8.44863 6.99381 8.58083V10.2755C6.99381 10.8078 6.83594 11.3282 6.54018 11.7709C6.24441 12.2135 5.82406 12.5585 5.33225 12.7622C4.84043 12.9659 4.29923 13.0192 3.77712 12.9154C3.25501 12.8115 2.77542 12.5552 2.39899 12.1788C2.02257 11.8023 1.76622 11.3227 1.66237 10.8006C1.55851 10.2785 1.61182 9.7373 1.81553 9.2455C2.01925 8.75366 2.36424 8.3333 2.80687 8.03754C3.24949 7.74178 3.76988 7.58395 4.30223 7.58395H12.3769C12.5083 7.58138 12.6336 7.52807 12.7266 7.43514C12.8195 7.34221 12.8728 7.21691 12.8754 7.08551C12.8754 6.95331 12.8229 6.8265 12.7294 6.73307C12.6359 6.63958 12.5091 6.58707 12.3769 6.58707H4.30223C3.57272 6.58707 2.85959 6.80339 2.25303 7.20865C1.64647 7.61396 1.17371 8.19002 0.894538 8.86401C0.615368 9.53799 0.542324 10.2796 0.684644 10.9951C0.826963 11.7106 1.17825 12.3678 1.69409 12.8836C2.20994 13.3995 2.86716 13.7507 3.58264 13.8931C4.29813 14.0354 5.03976 13.9624 5.71376 13.6832C6.38769 13.404 6.96376 12.9313 7.36906 12.3247C7.77437 11.7181 7.99069 11.005 7.99069 10.2755V8.58083ZM7.49225 6.08863C7.62364 6.08606 7.74895 6.03275 7.84188 5.93982C7.93481 5.84689 7.98812 5.72159 7.99069 5.59019V3.89548C7.99069 3.18163 8.27427 2.49702 8.779 1.99225C9.28379 1.48748 9.96839 1.20391 10.6822 1.20391C11.3961 1.20391 12.0807 1.48748 12.5855 1.99225C13.0902 2.49702 13.3738 3.18163 13.3738 3.89548V11.9702C13.3738 12.1024 13.4264 12.2292 13.5198 12.3226C13.6133 12.4161 13.74 12.4686 13.8722 12.4686C14.0036 12.4661 14.1289 12.4127 14.2219 12.3198C14.3148 12.2269 14.3682 12.1016 14.3707 11.9702V3.89548C14.3707 3.41111 14.2753 2.93148 14.0899 2.48397C13.9046 2.03647 13.6329 1.62986 13.2904 1.28735C12.9479 0.944849 12.5412 0.673159 12.0937 0.487797C11.6463 0.302435 11.1666 0.207031 10.6822 0.207031C10.1979 0.207031 9.71824 0.302435 9.27075 0.487797C8.82325 0.673159 8.41664 0.944849 8.07411 1.28735C7.73163 1.62986 7.45993 2.03647 7.27457 2.48397C7.08921 2.93148 6.99381 3.41111 6.99381 3.89548V5.59019C6.99381 5.72239 7.04632 5.84915 7.1398 5.94264C7.23324 6.03613 7.36005 6.08863 7.49225 6.08863Z" fill="white"/>
<path d="M28.0139 7.02335C27.5197 7.46264 27.2634 8.12157 27.2634 8.98182V10.2264H32.2602V11.5809H27.2634V15.9919H25.7076V8.9635C25.7076 7.71888 26.1103 6.73051 26.8974 6.01671C27.6844 5.30285 28.8009 4.95511 30.2286 4.95511C30.8141 4.95348 31.3977 5.02107 31.9674 5.15644C32.4693 5.28171 32.946 5.49219 33.3767 5.77874L32.8642 7.06C32.0937 6.55472 31.1862 6.29908 30.2652 6.32787C29.2768 6.32787 28.5264 6.56579 28.0139 7.02335Z" fill="white"/>
<path d="M35.7199 15.529C35.0775 15.1818 34.545 14.6619 34.1824 14.0281C33.822 13.3587 33.6333 12.6103 33.6333 11.85C33.6333 11.0897 33.822 10.3413 34.1824 9.67194C34.545 9.03813 35.0775 8.51824 35.7199 8.17108C36.4028 7.82241 37.1587 7.64062 37.9254 7.64062C38.6922 7.64062 39.448 7.82241 40.131 8.17108C40.7644 8.52403 41.2895 9.04291 41.6502 9.67194C42.0221 10.3376 42.2173 11.0875 42.2173 11.85C42.2173 12.6125 42.0221 13.3624 41.6502 14.0281C41.2895 14.6571 40.7644 15.176 40.131 15.529C39.4517 15.8895 38.6945 16.0781 37.9254 16.0781C37.1564 16.0781 36.3992 15.8895 35.7199 15.529ZM39.3439 14.3942C39.7643 14.1535 40.1071 13.798 40.3323 13.3692C40.5732 12.899 40.6989 12.3783 40.6989 11.85C40.6989 11.3217 40.5732 10.801 40.3323 10.3308C40.1071 9.90206 39.7643 9.54649 39.3439 9.30585C38.9058 9.07805 38.4193 8.95914 37.9254 8.95914C37.4316 8.95914 36.9451 9.07805 36.5069 9.30585C36.0811 9.54538 35.732 9.9008 35.5002 10.3308C35.2594 10.801 35.1337 11.3217 35.1337 11.85C35.1337 12.3783 35.2594 12.899 35.5002 13.3692C35.732 13.7993 36.0811 14.1547 36.5069 14.3942C36.9411 14.6345 37.4292 14.7606 37.9254 14.7606C38.4217 14.7606 38.9098 14.6345 39.3439 14.3942Z" fill="white"/>
<path d="M44.303 4.47461H45.8038V15.9873H44.303V4.47461Z" fill="white"/>
<path d="M56.4573 4.47461V15.9873H55.0296V14.6695C54.7069 15.1215 54.2714 15.4811 53.7665 15.7128C53.2389 15.9566 52.664 16.0815 52.0825 16.0789C51.3294 16.0877 50.5863 15.905 49.9229 15.5481C49.3041 15.1884 48.7923 14.6704 48.4403 14.0472C48.0811 13.3715 47.8985 12.616 47.9095 11.8508C47.8936 11.0851 48.0765 10.3284 48.4403 9.65442C48.7876 9.03239 49.3009 8.5191 49.9229 8.17189C50.5863 7.81491 51.3294 7.63227 52.0825 7.64108C52.6428 7.63534 53.1976 7.7476 53.7116 7.97052C54.2004 8.19414 54.6278 8.53334 54.956 8.95889V4.47461H56.4573ZM53.62 14.395C54.0459 14.1555 54.3952 13.8001 54.6268 13.37C54.8554 12.8962 54.9742 12.3769 54.9742 11.8508C54.9742 11.3247 54.8554 10.8054 54.6268 10.3317C54.3952 9.9016 54.0459 9.54618 53.62 9.30665C53.182 9.07885 52.6957 8.95995 52.2018 8.95995C51.708 8.95995 51.2211 9.07885 50.7832 9.30665C50.3615 9.55152 50.0136 9.90563 49.7765 10.3317C49.5355 10.8018 49.4099 11.3225 49.4099 11.8508C49.4099 12.3791 49.5355 12.8998 49.7765 13.37C50.0136 13.796 50.3615 14.1501 50.7832 14.395C51.2171 14.6353 51.7054 14.7615 52.2018 14.7615C52.6977 14.7615 53.186 14.6353 53.62 14.395Z" fill="white"/>
<path d="M66.2853 8.55625C66.9075 9.16026 67.2186 10.0571 67.2186 11.2285V15.9873H65.7179V11.3932C65.7179 10.5879 65.5165 10.0022 65.1319 9.58122C64.7478 9.16026 64.1986 8.97721 63.4847 8.97721C62.7709 8.97721 62.0389 9.21513 61.5631 9.69102C61.0869 10.1669 60.8674 10.8442 60.8674 11.7227V15.9873H59.3667V4.47461H60.8674V8.88569C61.1941 8.48386 61.6155 8.16942 62.0937 7.97052C62.6259 7.74372 63.1993 7.63146 63.7777 7.64108C64.8394 7.64108 65.663 7.95224 66.2853 8.55625Z" fill="white"/>
<path d="M77.5063 12.3449H70.8072C70.8817 13.0328 71.2235 13.6639 71.7592 14.102C72.3386 14.5517 73.0575 14.7847 73.7905 14.7609C74.7792 14.7609 75.5842 14.4314 76.1883 13.7726L77.0119 14.7243C76.6308 15.161 76.1551 15.5051 75.6209 15.731C75.0259 15.9622 74.3926 16.0802 73.7542 16.0787C72.9452 16.0947 72.1458 15.9058 71.4294 15.5297C70.7725 15.1896 70.2263 14.6689 69.8557 14.0288C69.4837 13.3639 69.2939 12.6125 69.3065 11.8507C69.2949 11.0948 69.4842 10.3494 69.8557 9.6909C70.189 9.05548 70.697 8.52845 71.3197 8.17177C71.9772 7.81701 72.7142 7.63442 73.4613 7.64096C74.1973 7.6317 74.9227 7.81464 75.5661 8.17177C76.1833 8.5296 76.6852 9.05679 77.0119 9.6909C77.3713 10.3666 77.5541 11.1221 77.543 11.8873C77.543 12.0154 77.5244 12.1619 77.5063 12.3449ZM71.6494 9.56278C71.1722 10.01 70.8732 10.6146 70.8072 11.265H76.0967C76.0393 10.6122 75.7387 10.0048 75.255 9.56278C74.7651 9.11841 74.1223 8.8821 73.4613 8.9039C72.7957 8.88678 72.1483 9.12218 71.6494 9.56278Z" fill="white"/>
<path d="M87.6468 7.71433V15.9874H86.219V14.6696C85.8964 15.1215 85.4609 15.4811 84.956 15.7129C84.4284 15.9566 83.8535 16.0816 83.2725 16.0789C82.5244 16.0903 81.7864 15.9074 81.1309 15.5482C80.5027 15.1948 79.9831 14.6756 79.6297 14.0472C79.2708 13.3716 79.088 12.6161 79.0991 11.8509C79.083 11.0852 79.2663 10.3284 79.6297 9.65447C79.9791 9.02756 80.4996 8.51326 81.1309 8.17194C81.7864 7.8126 82.5244 7.6297 83.2725 7.64113C83.8323 7.63539 84.3876 7.74765 84.9011 7.97057C85.3924 8.19887 85.8244 8.53702 86.1642 8.95894V7.71433H87.6468ZM84.81 14.395C85.2394 14.1606 85.5898 13.8039 85.8163 13.37C86.0449 12.8962 86.1637 12.3769 86.1637 11.8509C86.1637 11.3248 86.0449 10.8055 85.8163 10.3317C85.5898 9.89788 85.2394 9.54115 84.81 9.30671C84.3715 9.07891 83.8852 8.96 83.3913 8.96C82.8975 8.96 82.4106 9.07891 81.9727 9.30671C81.5508 9.55157 81.2034 9.90568 80.9658 10.3317C80.7252 10.8019 80.5993 11.3226 80.5993 11.8509C80.5993 12.3792 80.7252 12.8999 80.9658 13.37C81.2034 13.7961 81.5508 14.1502 81.9727 14.395C82.4071 14.6354 82.8949 14.7615 83.3913 14.7615C83.8877 14.7615 84.3755 14.6354 84.81 14.395Z" fill="white"/>
<path d="M90.4823 4.47461H91.9835V15.9873H90.4823V4.47461Z" fill="white"/>
<path d="M99.8723 15.4925C99.6316 15.6852 99.3593 15.8339 99.0668 15.9318C98.7396 16.0265 98.4008 16.0758 98.06 16.0782C97.2364 16.0782 96.5774 15.8403 96.1384 15.401C95.6989 14.9617 95.4427 14.3211 95.4427 13.4791V8.95824H94.0336V7.71362H95.4427V5.91992H96.9439V7.71362H99.3049V8.95824H96.9439V13.4243C96.9192 13.7953 97.037 14.1618 97.2731 14.4492C97.3974 14.5731 97.5465 14.6696 97.7106 14.7326C97.8742 14.7956 98.0494 14.8238 98.2251 14.8153C98.652 14.8312 99.0693 14.6876 99.396 14.4126L99.8723 15.4925Z" fill="white"/>
<path d="M108.42 8.55625C109.042 9.16026 109.353 10.0571 109.353 11.2285V15.9873H107.853V11.3932C107.853 10.5879 107.651 10.0022 107.267 9.58122C106.882 9.16026 106.333 8.97721 105.619 8.97721C104.905 8.97721 104.174 9.21513 103.698 9.69102C103.222 10.1669 103.002 10.8442 103.002 11.7227V15.9873H101.501V4.47461H103.002V8.88569C103.329 8.48386 103.75 8.16942 104.228 7.97052C104.761 7.74372 105.334 7.63146 105.912 7.64108C106.974 7.64108 107.798 7.95224 108.42 8.55625Z" fill="white"/>
</g>
<defs>
<clipPath id="clip0_435_5906">
<rect width="108.74" height="20.137" fill="white" transform="translate(0.61377 0.207031)"/>
</clipPath>
</defs>
</svg>
