<svg width="25" height="25" viewBox="0 0 25 25" fill="none" xmlns="http://www.w3.org/2000/svg">
                        <path
                          d="M6.00885 8.42578H1.19081C0.976975 8.42578 0.803711 8.59912 0.803711 8.81288V24.2912C0.803711 24.505 0.976975 24.6783 1.19081 24.6783H6.00885C6.22268 24.6783 6.39594 24.505 6.39594 24.2912V8.81288C6.39594 8.59912 6.22268 8.42578 6.00885 8.42578Z"
                          fill="hsl(217.9, 10.6%, 64.9%)"
                        />
                        <path
                          d="M3.60118 0.730469C1.84809 0.730469 0.421875 2.15514 0.421875 3.90629C0.421875 5.65821 1.84809 7.08342 3.60118 7.08342C5.35287 7.08342 6.77793 5.65813 6.77793 3.90629C6.778 2.15514 5.35287 0.730469 3.60118 0.730469Z"
                          fill="hsl(217.9, 10.6%, 64.9%)"
                        />
                        <path
                          d="M18.2631 8.03906C16.328 8.03906 14.8975 8.87093 14.0299 9.81615V8.81086C14.0299 8.5971 13.8566 8.42376 13.6428 8.42376H9.0287C8.81487 8.42376 8.6416 8.5971 8.6416 8.81086V24.2892C8.6416 24.503 8.81487 24.6762 9.0287 24.6762H13.8362C14.05 24.6762 14.2233 24.503 14.2233 24.2892V16.631C14.2233 14.0504 14.9243 13.045 16.7232 13.045C18.6824 13.045 18.838 14.6567 18.838 16.7638V24.2892C18.838 24.5031 19.0113 24.6763 19.2251 24.6763H24.0344C24.2483 24.6763 24.4215 24.5031 24.4215 24.2892V15.7991C24.4215 11.9618 23.6898 8.03906 18.2631 8.03906Z"
                          fill="hsl(217.9, 10.6%, 64.9%)"
                        />
                      </svg>