<svg width="96" height="31" viewBox="0 0 96 31" fill="none" xmlns="http://www.w3.org/2000/svg">
<g clip-path="url(#clip0_435_5789)">
<mask id="mask0_435_5789" style="mask-type:luminance" maskUnits="userSpaceOnUse" x="1" y="0" width="95" height="30">
<path d="M95.6073 0.851562H1.14172V29.7684H95.6073V0.851562Z" fill="white"/>
</mask>
<g mask="url(#mask0_435_5789)">
<path d="M24.3693 15.959C24.3693 18.4995 24.078 20.5277 23.4954 22.0438C22.9129 23.5598 22.0998 24.6397 21.056 25.2835C20.0115 25.9256 18.7469 26.247 17.2622 26.2479C15.3932 26.2479 13.7939 25.8162 12.4643 24.953C11.2225 24.1473 10.3162 22.8955 9.74543 21.1978C9.71216 21.0976 9.64217 21.0129 9.54882 20.9599C9.45552 20.9068 9.34542 20.8892 9.2396 20.9104L9.17133 20.9252C9.06304 20.9473 8.96741 21.0086 8.90357 21.0967C8.83977 21.1848 8.81255 21.2931 8.82734 21.4L9.59368 27.0076C9.59498 27.0264 9.59498 27.0454 9.59368 27.0643V28.755C9.59368 29.3717 9.25733 29.7688 8.55544 29.7688H2.1806C2.04287 29.7734 1.90562 29.7504 1.77741 29.701C1.64921 29.6517 1.53278 29.5772 1.43538 29.4821C1.33799 29.387 1.26171 29.2734 1.2113 29.1483C1.16089 29.0232 1.13743 28.8893 1.14237 28.755V6.98849C1.13997 6.85489 1.16519 6.72217 1.21651 6.59829C1.26784 6.47437 1.34423 6.36185 1.44112 6.26734C1.53801 6.17287 1.65342 6.09837 1.78047 6.0483C1.90752 5.99827 2.0436 5.97366 2.1806 5.97603H8.33794C8.92218 5.97603 9.39391 6.34598 9.29651 7.06741L8.66419 12.1298C8.6506 12.2391 8.68076 12.3494 8.74833 12.4376C8.81594 12.5258 8.91581 12.5852 9.02716 12.6034L9.07519 12.612C9.18659 12.6312 9.3013 12.6078 9.39549 12.5468C9.48967 12.4857 9.55613 12.3916 9.58107 12.284C9.96549 10.629 10.4633 9.31685 11.0746 8.34754C11.7347 7.30339 12.5453 6.56344 13.5064 6.12769C14.4675 5.69193 15.6478 5.4749 17.0472 5.47657C21.9395 5.47736 24.3802 8.97152 24.3693 15.959ZM15.1377 19.6242C15.5593 18.9599 15.77 17.9042 15.77 16.4572C15.77 15.0538 15.5668 14.052 15.1604 13.4518C14.7541 12.8517 14.086 12.5516 13.1561 12.5516C12.5652 12.5507 11.9847 12.7031 11.4741 12.9931C10.9185 13.3177 10.4673 13.7877 10.1716 14.3496C9.8344 14.9548 9.64217 15.7025 9.59494 16.5929V18.9361C9.59531 19.0066 9.61336 19.0759 9.64752 19.138C9.68168 19.2001 9.73096 19.2531 9.79099 19.2925C10.3654 19.6863 10.9758 20.0278 11.6145 20.3123C12.1287 20.5222 12.6809 20.6287 13.2383 20.6256C14.0872 20.6223 14.7204 20.2885 15.1377 19.6242Z" fill="white"/>
<path d="M34.1801 1.77909V24.7357C34.1817 24.8691 34.1558 25.0015 34.1042 25.1251C34.0526 25.2487 33.9762 25.361 33.8795 25.4554C33.7828 25.5498 33.6678 25.6244 33.5411 25.6749C33.4144 25.7254 33.2787 25.7507 33.1419 25.7494H26.8454C26.7086 25.7507 26.5728 25.7254 26.4461 25.6749C26.3193 25.6244 26.2042 25.5498 26.1074 25.4554C26.0106 25.3611 25.9341 25.2488 25.8823 25.1252C25.8306 25.0016 25.8046 24.8692 25.806 24.7357V3.01601C25.7973 2.75707 25.8845 2.50373 26.0517 2.30239C26.2189 2.10105 26.4549 1.96518 26.7165 1.91967L33.1002 0.865259C33.7274 0.7666 34.1801 1.21426 34.1801 1.77909Z" fill="white"/>
<path d="M41.0078 25.1389C39.3596 24.3775 38.1288 23.282 37.3152 21.8523C36.5016 20.4226 36.0953 18.6998 36.0961 16.6838V6.98937C36.0924 6.85545 36.1168 6.72222 36.1677 6.59774C36.2186 6.4733 36.2949 6.36027 36.3921 6.26552C36.4892 6.17078 36.6051 6.09632 36.7328 6.04672C36.8604 5.99707 36.997 5.97333 37.1344 5.97692H43.513C43.6499 5.97524 43.7857 6.00028 43.9125 6.05058C44.0393 6.10084 44.1545 6.17534 44.2513 6.26967C44.3482 6.36404 44.4247 6.47628 44.4765 6.59988C44.5282 6.72347 44.554 6.85591 44.5525 6.98937V16.5062C44.5525 17.4501 44.7721 18.0988 45.2114 18.4523C45.6506 18.8058 46.2989 18.9826 47.1563 18.9826C48.0137 18.9826 48.6652 18.7976 49.11 18.4276C49.5554 18.0576 49.7778 17.4172 49.7778 16.5062V6.98937C49.7741 6.85545 49.7988 6.72222 49.8495 6.59774C49.9002 6.4733 49.9765 6.36027 50.0738 6.26552C50.171 6.17078 50.2869 6.09632 50.4144 6.04672C50.5419 5.99707 50.6787 5.97333 50.816 5.97692H57.1959C57.7879 5.97692 58.2341 6.34687 58.2341 6.87345V16.6838C58.2341 18.6989 57.8279 20.4217 57.0149 21.8523C56.2024 23.2828 54.9716 24.3784 53.3224 25.1389C51.6736 25.8993 49.6182 26.28 47.1563 26.2808C44.6945 26.2816 42.6451 25.901 41.0078 25.1389Z" fill="white"/>
<path d="M93.8679 7.92327C95.0271 9.55362 95.6069 12.1475 95.6069 15.705V24.7384C95.6106 24.8725 95.5864 25.0058 95.5357 25.1304C95.4845 25.255 95.4082 25.3682 95.3114 25.4631C95.2141 25.558 95.0983 25.6325 94.9703 25.6822C94.8428 25.7319 94.706 25.7557 94.5682 25.7521H88.172C87.5992 25.7521 87.1338 25.3895 87.1338 24.7384V16.1711C87.1338 14.896 86.9416 13.985 86.5573 13.4383C86.1729 12.8916 85.601 12.6182 84.8424 12.6182C83.9085 12.6182 83.2216 12.9261 82.7824 13.5419C82.3431 14.1577 82.1123 15.1303 82.0894 16.4597V24.7384C82.0932 24.8725 82.069 25.0058 82.0183 25.1304C81.9675 25.255 81.8912 25.3682 81.794 25.4631C81.6967 25.558 81.5808 25.6325 81.4529 25.6822C81.3254 25.7319 81.1885 25.7557 81.0513 25.7521H74.6876C74.5504 25.7557 74.4135 25.7319 74.2856 25.6822C74.1581 25.6325 74.0422 25.558 73.9449 25.4631C73.8477 25.3682 73.7714 25.255 73.7206 25.1304C73.6699 25.0058 73.6457 24.8725 73.6494 24.7384V16.1711C73.6494 14.9059 73.4628 13.9974 73.0892 13.4457C72.716 12.894 72.144 12.6182 71.3743 12.6182C70.9876 12.6092 70.6042 12.6914 70.257 12.8578C69.9099 13.0241 69.6093 13.2698 69.3803 13.5739C68.8745 14.2128 68.6158 15.1583 68.6051 16.4104V24.7372C68.6051 25.3304 68.2039 25.7509 67.5669 25.7509H61.187C61.0492 25.7545 60.9124 25.7307 60.7849 25.681C60.6574 25.6313 60.5411 25.5567 60.4443 25.4619C60.347 25.367 60.2707 25.2538 60.22 25.1292C60.1688 25.0046 60.1446 24.8712 60.1488 24.7372V6.99095C60.1427 6.85651 60.166 6.7224 60.2158 6.59703C60.266 6.47167 60.3424 6.3578 60.4401 6.26263C60.5373 6.16747 60.6541 6.09311 60.783 6.0442C60.9115 5.99529 61.0487 5.97291 61.187 5.97849H67.3505C67.9727 5.97849 68.4092 6.29172 68.3407 6.8553L67.7856 11.6871C67.774 11.7894 67.8005 11.8923 67.8605 11.9771C67.9205 12.0618 68.0094 12.1226 68.1118 12.1484C68.17 12.1631 68.2305 12.1659 68.2896 12.1569C68.3487 12.1478 68.4054 12.1269 68.4562 12.0956C68.5069 12.0643 68.5502 12.0231 68.5841 11.9747C68.6176 11.9263 68.6404 11.8716 68.6516 11.8141C68.9527 10.2923 69.3538 9.08418 69.8545 8.18968C70.4032 7.20803 71.1063 6.51122 71.964 6.09934C72.8211 5.68746 73.9091 5.48192 75.2274 5.48271C76.8296 5.48271 78.1456 6.0241 79.1759 7.10691C80.1443 8.12719 80.7251 9.69588 80.9172 11.8129C80.9279 11.9193 80.9787 12.018 81.0601 12.0896C81.1415 12.1612 81.2476 12.2007 81.357 12.2001H81.4431C81.5441 12.2004 81.6423 12.1665 81.7209 12.1042C81.7991 12.042 81.8531 11.9551 81.8731 11.8585C82.1969 10.2965 82.6302 9.06319 83.1732 8.15883C83.7559 7.18951 84.4976 6.50098 85.399 6.0932C86.2999 5.68537 87.4489 5.47987 88.8449 5.47656C91.0344 5.47903 92.7087 6.2946 93.8679 7.92327Z" fill="white"/>
</g>
</g>
<defs>
<clipPath id="clip0_435_5789">
<rect width="94.931" height="29.3169" fill="white" transform="translate(0.811768 0.824219)"/>
</clipPath>
</defs>
</svg>
