<svg width="104" height="25" viewBox="0 0 104 25" fill="none" xmlns="http://www.w3.org/2000/svg">
<g clip-path="url(#clip0_435_5799)">
<path fill-rule="evenodd" clip-rule="evenodd" d="M8.63069 12.3004C8.63069 10.0853 6.85756 8.28166 4.68002 8.28166C2.47138 8.25002 0.698242 10.0537 0.698242 12.3004C0.698242 14.5155 2.47138 16.3191 4.64891 16.3191C6.85756 16.3191 8.63069 14.5155 8.63069 12.3004ZM103.54 12.3004C103.54 10.0853 101.767 8.28166 99.5894 8.28166C97.4119 8.28166 95.6388 10.0853 95.6388 12.3004C95.6388 14.5155 97.4119 16.3191 99.5894 16.3191C101.767 16.3191 103.54 14.5155 103.54 12.3004Z" fill="white"/>
<path fill-rule="evenodd" clip-rule="evenodd" d="M61.4829 15.9057C59.5542 15.9057 57.9988 14.4501 57.9988 12.2984C57.9988 10.1466 59.5542 8.69098 61.4829 8.69098C62.7272 8.69098 63.7848 9.29221 64.4381 10.3048L67.6733 7.96318C66.3046 5.96963 64.0648 4.67224 61.4829 4.67224C57.3455 4.67224 53.9859 8.08975 53.9859 12.2984C53.9859 16.507 57.3455 19.9245 61.4829 19.9245C63.9404 19.9245 66.149 18.8169 67.8288 16.4753L64.5625 14.1653C63.8782 15.1779 62.8516 15.9057 61.4829 15.9057ZM44.6536 15.9057C42.725 15.9057 41.1696 14.4501 41.1696 12.2984C41.1696 10.1466 42.725 8.69098 44.6536 8.69098C46.5823 8.69098 48.1377 10.1466 48.1377 12.2984C48.1377 14.4501 46.5512 15.9057 44.6536 15.9057ZM48.1999 6.31771C47.2045 5.3684 45.8668 4.64059 44.0004 4.64059C40.423 4.64059 37.1256 7.71003 37.1256 12.2667C37.1256 16.855 40.3919 19.8928 44.0004 19.8928C45.7424 19.8928 47.0489 19.1967 48.0444 18.2157V19.4815H52.0573V5.08361H48.1688C48.1999 5.08361 48.1999 6.31771 48.1999 6.31771ZM31.3085 6.76072V5.08361H27.4511V19.4815H31.464V12.6464C31.464 9.76687 33.0194 9.00742 34.7614 9.00742C35.1969 9.00742 35.6324 9.03906 36.1301 9.16564V5.08361C35.8502 4.98867 35.4147 4.92539 34.9792 4.92539C33.8593 4.92539 32.2106 5.30511 31.3085 6.76072ZM73.2727 0.875H69.2598V14.9248C69.2598 17.8044 70.9707 19.608 74.3925 19.608C75.7613 19.608 77.0367 19.4182 77.8766 19.165V15.4944C77.0989 15.7159 76.1968 15.9057 75.108 15.9057C73.9881 15.9057 73.2727 15.5893 73.2727 14.3868V8.65934H77.9388V5.05196H73.2727V0.875ZM86.4312 15.9057C84.5025 15.9057 82.9471 14.4501 82.9471 12.2984C82.9471 10.1466 84.5025 8.69098 86.4312 8.69098C88.3599 8.69098 89.9153 10.1466 89.9153 12.2984C89.9153 14.4501 88.3599 15.9057 86.4312 15.9057ZM86.4312 4.64059C82.2939 4.64059 78.9343 8.05811 78.9343 12.2667C78.9343 16.4753 82.2939 19.8928 86.4312 19.8928C90.5685 19.8928 93.9282 16.4753 93.9282 12.2667C93.9593 8.05811 90.5996 4.64059 86.4312 4.64059ZM18.0255 15.9057C16.0968 15.9057 14.5414 14.4501 14.5414 12.2984C14.5414 10.1466 16.0968 8.69098 18.0255 8.69098C19.9542 8.69098 21.5095 10.1466 21.5095 12.2984C21.5095 14.4501 19.9542 15.9057 18.0255 15.9057ZM18.6476 4.64059C16.7812 4.64059 15.4436 5.3684 14.4481 6.31771V5.08361H10.5908V24.6077H14.6036V18.2157C15.5991 19.2283 16.9367 19.8928 18.6476 19.8928C22.2561 19.8928 25.5224 16.8234 25.5224 12.2667C25.5224 7.71003 22.225 4.64059 18.6476 4.64059Z" fill="white"/>
</g>
<defs>
<clipPath id="clip0_435_5799">
<rect width="102.842" height="23.7327" fill="white" transform="translate(0.698914 0.873047)"/>
</clipPath>
</defs>
</svg>
