<svg width="73" height="42" viewBox="0 0 73 42" fill="none" xmlns="http://www.w3.org/2000/svg">
<g clip-path="url(#clip0_435_5901)">
<path d="M44.8126 41.1212C41.4497 40.6696 38.6666 38.5384 37.7205 35.6904C36.9257 33.2978 37.3946 31.4485 38.8374 31.2853C39.4896 31.2116 39.9134 31.3296 40.3204 31.6985C40.7374 32.0765 40.8458 32.3575 40.9374 33.2982C41.2055 36.0526 43.2309 37.9014 45.9801 37.9014C46.9718 37.9014 47.5897 37.767 48.425 37.3694C50.0407 36.6003 50.8962 35.1353 50.7999 33.3028C50.7353 32.0759 50.2279 31.1409 49.2095 30.373C48.4139 29.773 47.3164 29.2696 45.2477 28.5558C42.3851 27.5681 41.0867 26.9352 39.8668 25.9329C37.5982 24.0692 36.739 20.6449 37.7396 17.4552C38.1666 16.094 38.7332 15.1612 39.7756 14.1032C41.3308 12.5249 43.3552 11.7135 45.7307 11.7162C50.0167 11.7207 53.4936 14.3873 54.278 18.2702C54.4002 18.8754 54.4253 19.3331 54.384 20.204C54.2987 21.9991 53.8569 23.2831 53.0437 24.0989C52.1297 25.0158 50.727 24.8534 50.18 23.7673C49.9074 23.2259 49.9145 22.9026 50.2143 22.1989C50.6616 21.1496 50.8184 20.5413 50.8184 19.856C50.8184 18.5393 50.3787 17.4376 49.4774 16.496C48.8167 15.8058 48.0793 15.3863 47.0734 15.1282C44.4871 14.4647 41.9826 15.7815 41.1623 18.2362C40.8709 19.1084 40.87 20.4319 41.1601 21.2501C41.4325 22.018 41.9403 22.7336 42.5799 23.2508C43.3005 23.8337 44.8928 24.6039 46.6567 25.223C49.5057 26.2229 50.4716 26.675 51.6829 27.5755C52.9217 28.4964 53.6705 29.5611 54.1429 31.0733C54.3335 31.6835 54.3642 31.9788 54.3646 33.2047C54.3649 34.402 54.331 34.7454 54.1512 35.3679C53.3097 38.2804 51.0624 40.3251 47.9787 40.9837C47.1396 41.1629 45.6163 41.2292 44.8126 41.1212ZM7.36674 28.4102C3.96075 27.8712 1.3719 25.7065 0.579105 22.7345C0.327403 21.791 0.306748 20.1112 0.535315 19.1725C0.869066 17.8018 1.67485 16.6177 2.44788 16.3617C3.10191 16.1452 3.96331 16.4403 4.39384 17.0283C4.72922 17.4864 4.71759 18.0307 4.35226 18.9741C3.94466 20.0267 3.86493 20.5852 4.00066 21.4374C4.27667 23.1703 5.50224 24.5053 7.30489 25.0365C8.02824 25.2496 9.40936 25.2363 10.1369 25.0091C12.6874 24.2128 13.8253 21.4536 12.5802 19.0843C11.9683 17.9198 10.5795 17.0282 7.74412 15.9792C4.71358 14.858 3.58644 14.2357 2.341 12.9961C1.36709 12.0268 0.906667 11.2517 0.582936 10.0359C0.302324 8.98236 0.302358 7.12839 0.582999 6.06998C1.15975 3.89465 2.59509 2.13732 4.61121 1.13807C5.83017 0.533894 6.88124 0.298633 8.35177 0.300796C10.8954 0.304158 12.7979 1.06534 14.453 2.7407C15.7598 4.06369 16.372 5.3219 16.5733 7.09896C16.7692 8.82862 16.1268 9.69956 14.7211 9.60969C13.8137 9.55175 13.2371 9.01338 13.1326 8.12656C12.9468 6.55054 12.6046 5.72218 11.8102 4.92521C10.2615 3.37171 7.59416 3.09638 5.74002 4.29849C3.84444 5.52757 3.34745 8.33962 4.70962 10.1292C5.41922 11.0615 6.62051 11.7484 9.46115 12.8463C11.6627 13.6971 12.4451 14.0636 13.4166 14.6988C14.8425 15.6312 15.7758 16.7629 16.2505 18.1351C17.3062 21.1869 16.341 24.7164 13.9059 26.7083C13.1596 27.3188 11.8342 27.9801 10.8581 28.229C9.98375 28.4519 8.21137 28.5438 7.36674 28.4102ZM25.5875 28.4001C22.9553 28.0215 20.41 26.1044 19.2789 23.6485C18.7151 22.4243 18.5295 21.5272 18.5375 20.0646C18.5459 18.5396 18.7313 17.7124 19.3562 16.4117C20.1794 14.6985 21.4932 13.3999 23.2483 12.5643C24.5066 11.9653 25.1815 11.8025 26.6532 11.7431C28.5606 11.6661 30.014 12.0061 31.4642 12.8687C32.1819 13.2955 33.3389 14.3494 33.8367 15.0298C34.3495 15.7306 34.9258 16.9784 35.1926 17.9656C35.4373 18.8711 35.4396 18.9114 35.4742 22.9513C35.5054 26.5902 35.4922 27.0687 35.3504 27.4414C34.8477 28.7617 32.745 28.8451 32.0967 27.5704C31.9313 27.245 31.9141 26.9139 31.8771 23.3326C31.8436 20.0907 31.8106 19.3471 31.6779 18.8394C31.2764 17.3031 30.3365 16.0595 29.1246 15.4612C26.2093 14.022 22.8308 15.7864 22.2035 19.0756C22.0321 19.9744 22.033 20.3187 22.2091 21.1556C22.3992 22.0602 22.8304 22.9007 23.4471 23.5689C24.6928 24.9187 26.0474 25.3377 28.077 25.0014C29.0551 24.8393 29.4431 24.915 29.9066 25.3584C30.8859 26.2954 30.5141 27.5949 29.1166 28.1195C28.129 28.4901 26.8956 28.5882 25.5875 28.4001ZM63.6634 28.4068C60.6742 27.9669 58.1644 26.1 56.9498 23.4129C56.0256 21.3682 56.0457 18.6827 57.0007 16.6092C58.0437 14.3447 59.9846 12.6832 62.4042 11.9834C63.4318 11.6862 65.8037 11.6653 66.8968 11.9437C70.5114 12.8646 72.8559 15.6154 72.8881 18.9738C72.896 19.7475 72.8704 19.8753 72.6193 20.3351C72.4526 20.6405 72.184 20.9518 71.9446 21.117C71.2187 21.618 70.7509 21.6778 67.559 21.6778C64.7463 21.6778 64.6555 21.6722 64.2504 21.4643C63.6933 21.1788 63.4696 20.8473 63.4206 20.2348C63.3876 19.8224 63.4199 19.675 63.6016 19.4094C64.0911 18.694 64.0893 18.6944 66.722 18.6416C68.9488 18.597 69.0958 18.583 69.227 18.4045C69.5141 18.0134 69.125 16.9961 68.4164 16.2852C67.5536 15.4196 66.2941 14.9395 64.8969 14.9437C63.4274 14.9482 62.4071 15.3637 61.4111 16.3639C59.3653 18.4183 59.3236 21.6422 61.3165 23.6803C62.3341 24.7209 63.4779 25.1882 65.0071 25.1882C66.5235 25.1882 67.1313 24.9813 69.4976 23.66C71.5701 22.5027 73.1679 24.6455 71.4409 26.266C69.6913 27.9077 66.4101 28.811 63.6634 28.4068Z" fill="white"/>
</g>
<defs>
<clipPath id="clip0_435_5901">
<rect width="72.5167" height="40.8731" fill="white" transform="translate(0.372253 0.300781)"/>
</clipPath>
</defs>
</svg>
