<svg width="117" height="29" viewBox="0 0 117 29" fill="none" xmlns="http://www.w3.org/2000/svg">
<g clip-path="url(#clip0_435_5772)">
<path d="M34.1896 18.1654C33.0805 18.1654 32.1698 17.9039 31.4575 17.381C30.7452 16.8489 30.3619 16.0915 30.3079 15.1087H33.1346C33.1616 15.4424 33.2608 15.6857 33.4322 15.839C33.6035 15.9923 33.8244 16.069 34.0949 16.069C34.3383 16.069 34.5368 16.0104 34.6901 15.8932C34.8523 15.767 34.9335 15.5956 34.9335 15.3793C34.9335 15.0997 34.8027 14.8833 34.5412 14.73C34.2798 14.5767 33.856 14.4055 33.2699 14.2161C32.6477 14.0087 32.1428 13.8103 31.7551 13.6209C31.3763 13.4226 31.0427 13.1386 30.7542 12.7689C30.4747 12.3902 30.3349 11.8987 30.3349 11.2946C30.3349 10.6815 30.4882 10.1585 30.7948 9.72571C31.1014 9.28388 31.5251 8.95026 32.0661 8.72484C32.6071 8.49943 33.2203 8.38672 33.9055 8.38672C35.0146 8.38672 35.8983 8.64821 36.5565 9.17117C37.2237 9.68513 37.5799 10.411 37.6249 11.3487H34.7441C34.7351 11.0602 34.6449 10.8438 34.4736 10.6995C34.3113 10.5553 34.0995 10.4831 33.8379 10.4831C33.6396 10.4831 33.4772 10.5417 33.351 10.6589C33.2247 10.7762 33.1616 10.943 33.1616 11.1594C33.1616 11.3397 33.2293 11.4975 33.3645 11.6328C33.5089 11.759 33.6846 11.8717 33.892 11.9709C34.0995 12.0611 34.4059 12.1783 34.8117 12.3225C35.4158 12.5299 35.9118 12.7373 36.2995 12.9447C36.6962 13.143 37.0343 13.427 37.3139 13.7968C37.6025 14.1574 37.7467 14.6173 37.7467 15.1764C37.7467 15.7444 37.6025 16.2539 37.3139 16.7047C37.0343 17.1555 36.6241 17.5117 36.0831 17.7732C35.5511 18.0347 34.92 18.1654 34.1896 18.1654Z" fill="white"/>
<path d="M40.318 9.77896C39.8492 9.77896 39.4704 9.65273 39.182 9.40025C38.9024 9.13877 38.7626 8.81416 38.7626 8.42643C38.7626 8.0297 38.9024 7.70059 39.182 7.43911C39.4704 7.17762 39.8492 7.04688 40.318 7.04688C40.7779 7.04688 41.1476 7.17762 41.4271 7.43911C41.7156 7.70059 41.86 8.0297 41.86 8.42643C41.86 8.81416 41.7156 9.13877 41.4271 9.40025C41.1476 9.65273 40.7779 9.77896 40.318 9.77896ZM41.63 10.4823V18.0698H38.9791V10.4823H41.63Z" fill="white"/>
<path d="M53.0537 10.4141C54.0094 10.4141 54.7578 10.7026 55.2988 11.2797C55.8489 11.8567 56.1238 12.6457 56.1238 13.6466V18.0692H53.473V13.9982C53.473 13.5924 53.3602 13.2769 53.1348 13.0514C52.9094 12.826 52.6028 12.7133 52.2151 12.7133C51.8273 12.7133 51.5207 12.826 51.2954 13.0514C51.0699 13.2769 50.9572 13.5924 50.9572 13.9982V18.0692H48.3063V13.9982C48.3063 13.5924 48.1936 13.2769 47.9681 13.0514C47.7518 12.826 47.4497 12.7133 47.062 12.7133C46.6653 12.7133 46.3542 12.826 46.1288 13.0514C45.9033 13.2769 45.7907 13.5924 45.7907 13.9982V18.0692H43.1397V10.4817H45.7907V11.4825C46.0251 11.1579 46.3271 10.901 46.6968 10.7116C47.0755 10.5132 47.5084 10.4141 47.9953 10.4141C48.5543 10.4141 49.0502 10.5358 49.4831 10.7792C49.9248 11.0227 50.272 11.3653 50.5245 11.8072C50.795 11.3924 51.1512 11.0588 51.5929 10.8063C52.0347 10.5448 52.5216 10.4141 53.0537 10.4141Z" fill="white"/>
<path d="M60.2273 11.5383C60.4347 11.1867 60.7278 10.9071 61.1064 10.6997C61.4852 10.4924 61.9315 10.3887 62.4455 10.3887C63.0496 10.3887 63.595 10.5465 64.0819 10.8621C64.5779 11.1776 64.9656 11.6285 65.2451 12.2146C65.5336 12.8007 65.678 13.4859 65.678 14.2704C65.678 15.0548 65.5336 15.7446 65.2451 16.3397C64.9656 16.9258 64.5779 17.3766 64.0819 17.6923C63.595 18.0079 63.0496 18.1657 62.4455 18.1657C61.9315 18.1657 61.4852 18.062 61.1064 17.8546C60.7367 17.6471 60.4437 17.3677 60.2273 17.016V21.6957H57.5764V10.4833H60.2273V11.5383ZM62.9864 14.2704C62.9864 13.7744 62.8511 13.3913 62.5806 13.1207C62.3192 12.8412 61.9946 12.7015 61.6068 12.7015C61.2191 12.7015 60.89 12.8412 60.6195 13.1207C60.358 13.4002 60.2273 13.7835 60.2273 14.2704C60.2273 14.7663 60.358 15.154 60.6195 15.4336C60.89 15.7131 61.2191 15.8528 61.6068 15.8528C61.9946 15.8528 62.3192 15.7131 62.5806 15.4336C62.8511 15.145 62.9864 14.7573 62.9864 14.2704Z" fill="white"/>
<path d="M69.4202 8.06055V18.0691H66.7692V8.06055H69.4202Z" fill="white"/>
<path d="M72.2686 9.77896C71.7997 9.77896 71.421 9.65273 71.1325 9.40025C70.853 9.13877 70.7132 8.81416 70.7132 8.42643C70.7132 8.0297 70.853 7.70059 71.1325 7.43911C71.421 7.17762 71.7997 7.04688 72.2686 7.04688C72.7284 7.04688 73.0981 7.17762 73.3777 7.43911C73.6662 7.70059 73.8105 8.0297 73.8105 8.42643C73.8105 8.81416 73.6662 9.13877 73.3777 9.40025C73.0981 9.65273 72.7284 9.77896 72.2686 9.77896ZM73.5806 10.4823V18.0698H70.9296V10.4823H73.5806Z" fill="white"/>
<path d="M78.3228 18.1657C77.6376 18.1657 77.0244 18.0529 76.4834 17.8275C75.9514 17.593 75.5276 17.2775 75.2119 16.8808C74.9055 16.475 74.7341 16.0197 74.698 15.5147H77.2679C77.3039 15.7581 77.4166 15.9475 77.6059 16.0827C77.7953 16.218 78.0297 16.2856 78.3093 16.2856C78.5257 16.2856 78.697 16.2406 78.8232 16.1504C78.9495 16.0603 79.0126 15.9431 79.0126 15.7987C79.0126 15.6094 78.9089 15.4697 78.7015 15.3795C78.4941 15.2893 78.1515 15.1901 77.6735 15.0819C77.1326 14.9737 76.6817 14.8519 76.3211 14.7167C75.9604 14.5814 75.6448 14.3605 75.3743 14.054C75.1129 13.7474 74.982 13.3326 74.982 12.8097C74.982 12.3588 75.1038 11.9531 75.3473 11.5924C75.5907 11.2227 75.9469 10.9297 76.4157 10.7133C76.8937 10.4969 77.4662 10.3887 78.1334 10.3887C79.1253 10.3887 79.9052 10.6321 80.4733 11.119C81.0414 11.6059 81.3705 12.2461 81.4607 13.0396H79.0667C79.0215 12.7961 78.9134 12.6113 78.7421 12.4851C78.5798 12.3498 78.3589 12.2822 78.0793 12.2822C77.8629 12.2822 77.6961 12.3228 77.5789 12.4039C77.4708 12.4851 77.4166 12.5978 77.4166 12.742C77.4166 12.9224 77.5202 13.0622 77.7277 13.1614C77.9351 13.2515 78.2687 13.3462 78.7286 13.4454C79.2785 13.5626 79.7339 13.6933 80.0946 13.8375C80.4643 13.9819 80.7844 14.2163 81.0549 14.5409C81.3344 14.8565 81.4742 15.2893 81.4742 15.8393C81.4742 16.2811 81.3433 16.6779 81.0819 17.0295C80.8294 17.3812 80.4643 17.6606 79.9864 17.8681C79.5175 18.0664 78.963 18.1657 78.3228 18.1657Z" fill="white"/>
<path d="M92.6914 10.4141C93.6472 10.4141 94.3956 10.7026 94.9366 11.2797C95.4866 11.8567 95.7617 12.6457 95.7617 13.6466V18.0692H93.1107V13.9982C93.1107 13.5924 92.998 13.2769 92.7726 13.0514C92.5472 12.826 92.2406 12.7133 91.8529 12.7133C91.4652 12.7133 91.1586 12.826 90.9331 13.0514C90.7077 13.2769 90.5951 13.5924 90.5951 13.9982V18.0692H87.9441V13.9982C87.9441 13.5924 87.8314 13.2769 87.606 13.0514C87.3896 12.826 87.0875 12.7133 86.6998 12.7133C86.303 12.7133 85.992 12.826 85.7665 13.0514C85.5412 13.2769 85.4284 13.5924 85.4284 13.9982V18.0692H82.7775V10.4817H85.4284V11.4825C85.6628 11.1579 85.965 10.901 86.3347 10.7116C86.7133 10.5132 87.1461 10.4141 87.6331 10.4141C88.192 10.4141 88.688 10.5358 89.1208 10.7792C89.5626 11.0227 89.9097 11.3653 90.1622 11.8072C90.4327 11.3924 90.7889 11.0588 91.2307 10.8063C91.6726 10.5448 92.1595 10.4141 92.6914 10.4141Z" fill="white"/>
<path d="M96.7812 14.2704C96.7812 13.4859 96.9208 12.8007 97.2004 12.2146C97.489 11.6285 97.8767 11.1776 98.3636 10.8621C98.8595 10.5465 99.4095 10.3887 100.014 10.3887C100.537 10.3887 100.987 10.4924 101.366 10.6997C101.745 10.9071 102.038 11.1867 102.245 11.5383V10.4833H104.896V18.0709H102.245V17.016C102.038 17.3677 101.74 17.6471 101.353 17.8546C100.974 18.062 100.528 18.1657 100.014 18.1657C99.4095 18.1657 98.8595 18.0079 98.3636 17.6923C97.8767 17.3766 97.489 16.9258 97.2004 16.3397C96.9208 15.7446 96.7812 15.0548 96.7812 14.2704ZM102.245 14.2704C102.245 13.7835 102.11 13.4002 101.84 13.1207C101.578 12.8412 101.253 12.7015 100.866 12.7015C100.469 12.7015 100.14 12.8412 99.8784 13.1207C99.6169 13.3913 99.4861 13.7744 99.4861 14.2704C99.4861 14.7573 99.6169 15.145 99.8784 15.4336C100.14 15.7131 100.469 15.8528 100.866 15.8528C101.253 15.8528 101.578 15.7131 101.84 15.4336C102.11 15.154 102.245 14.7663 102.245 14.2704Z" fill="white"/>
<path d="M109.058 11.8207C109.355 11.3879 109.716 11.0452 110.14 10.7928C110.563 10.5403 111.019 10.4141 111.506 10.4141V13.2408H110.762C110.185 13.2408 109.757 13.3536 109.477 13.5789C109.197 13.8044 109.058 14.1965 109.058 14.7556V18.0692H106.407V10.4817H109.058V11.8207Z" fill="white"/>
<path d="M116.933 15.8109V18.0696H115.783C113.845 18.0696 112.876 17.1094 112.876 15.1888V12.6866H111.942V10.482H112.876V8.64258H115.54V10.482H116.92V12.6866H115.54V15.2293C115.54 15.4367 115.585 15.5855 115.675 15.6757C115.774 15.7659 115.937 15.8109 116.162 15.8109H116.933Z" fill="white"/>
<path fill-rule="evenodd" clip-rule="evenodd" d="M6.32172 18.2428C5.93446 18.2428 5.77856 18.5085 5.77856 18.6502C5.77856 18.792 5.93446 19.0576 6.32172 19.0576H19.2218C20.4967 19.0576 21.5302 20.0911 21.5302 21.366C21.5302 22.549 20.6403 23.5243 19.4934 23.6586V23.6744L9.64857 23.6066L8.29068 21.7734H19.2218C19.4468 21.7734 19.6292 21.591 19.6292 21.366C19.6292 21.141 19.4468 20.9586 19.2218 20.9586H6.32172C5.0591 20.9586 3.8775 20.0083 3.8775 18.6502C3.8775 17.2921 5.0591 16.3418 6.32172 16.3418H17.8299L19.2218 18.2428H6.32172Z" fill="white"/>
<path d="M3.87758 12.8112C3.65259 12.8112 3.47021 12.9936 3.47021 13.2186C3.47021 13.4436 3.65259 13.6259 3.87758 13.6259H23.1598C24.4346 13.6259 25.4682 14.6595 25.4682 15.9344C25.4682 17.2093 24.4346 18.2428 23.1598 18.2428H20.2402L18.8145 16.3417H23.1598C23.3848 16.3417 23.5671 16.1593 23.5671 15.9344C23.5671 15.7094 23.3848 15.527 23.1598 15.527H3.87758C2.60267 15.527 1.56915 14.4935 1.56915 13.2186C1.56915 11.9437 2.60267 10.9102 3.87758 10.9102H6.59338L7.95127 12.8112H3.87758Z" fill="#AFAFFF"/>
<path fill-rule="evenodd" clip-rule="evenodd" d="M7.81545 7.37958C7.59046 7.37958 7.40807 7.56196 7.40807 7.78695C7.40807 8.01193 7.59046 8.19431 7.81545 8.19431H20.8513C22.1261 8.19431 23.1597 9.22783 23.1597 10.5027C23.1597 11.7321 22.1988 12.737 20.9871 12.8073V12.8112H8.96966L7.61175 10.9101H20.8513C21.0763 10.9101 21.2587 10.7277 21.2587 10.5027C21.2587 10.2778 21.0763 10.0954 20.8513 10.0954H7.81545C6.54054 10.0954 5.50702 9.06186 5.50702 7.78695C5.50702 6.51203 6.54054 5.47852 7.81545 5.47852H17.5923L18.9502 7.37958H7.81545Z" fill="white"/>
</g>
<defs>
<clipPath id="clip0_435_5772">
<rect width="116.96" height="27.0372" fill="white" transform="translate(0 0.980469)"/>
</clipPath>
</defs>
</svg>
