<svg width="111" height="20" viewBox="0 0 111 20" fill="none" xmlns="http://www.w3.org/2000/svg">
<g clip-path="url(#clip0_435_5806)">
<path d="M20.4364 10.0655C20.4364 15.2492 15.8615 19.4513 10.2181 19.4513C4.57476 19.4513 -0.00012207 15.2492 -0.00012207 10.0655C-0.00012207 4.88187 4.57476 0.679688 10.2181 0.679688C15.8615 0.679688 20.4364 4.88187 20.4364 10.0655Z" fill="white"/>
<path d="M10.2654 5.63681C10.7294 5.14469 11.6095 5.4461 11.6095 6.09711V11.365C11.6095 11.7534 11.2668 12.0682 10.8441 12.0682H5.87725C5.22144 12.0682 4.86927 11.3601 5.2986 10.9048L10.2654 5.63681Z" fill="black" fill-opacity="0.4"/>
<path d="M10.2991 15.5329C9.83517 16.025 8.95502 15.7236 8.95502 15.0726V9.80468C8.95502 9.41635 9.29772 9.10156 9.7205 9.10156H14.6873C15.3431 9.10156 15.6952 9.80959 15.2659 10.265L10.2991 15.5329Z" fill="black" fill-opacity="0.6"/>
<path d="M31.3961 7.50016L32.579 6.1486C31.5548 5.43307 30.5306 5.04883 29.2322 5.04883C27.5589 5.04883 25.9287 5.88359 25.9287 7.64592C25.9287 9.4215 27.4002 9.95153 28.7129 10.4021C29.7371 10.7466 30.6604 11.0513 30.6604 11.8463C30.6604 12.6679 29.867 13.0257 29.0591 13.0257C28.0061 13.0257 27.3713 12.5884 26.549 11.8596L25.1786 13.0919C26.2749 14.0989 27.4867 14.6422 29.0447 14.6422C30.8046 14.6422 32.8675 13.7809 32.8675 11.7669C32.8675 9.81904 31.1509 9.20951 29.7227 8.75899C28.9437 8.5072 27.9916 8.30847 27.9916 7.59293C27.9916 6.9834 28.6119 6.66537 29.3044 6.66537C30.0834 6.66537 30.8335 7.06291 31.3961 7.50016Z" fill="white"/>
<path d="M39.7478 7.51562H37.9447L36.6318 11.8353H36.6028L35.4778 7.51562H33.2994L35.3767 14.4854H37.5838L38.7958 10.497H38.8245L40.022 14.4854H42.1856L44.3641 7.51562H42.2292L41.0316 11.8221H40.9885L39.7478 7.51562Z" fill="white"/>
<path d="M47.4831 14.4857V7.51594H45.4349V14.4857H47.4831ZM47.4831 6.54865V4.94531H45.4349V6.54865H47.4831Z" fill="white"/>
<path d="M49.4727 7.51448V17.7969H51.521V13.8085C52.0982 14.418 53.0069 14.6433 53.7426 14.6433C55.7912 14.6433 57.2913 12.987 57.2913 11.0259C57.2913 8.99853 55.7767 7.35547 53.7571 7.35547C52.9779 7.35547 51.9538 7.62048 51.4056 8.37577L51.2471 7.51448H49.4727ZM51.521 9.89957C51.9683 9.21056 52.6608 8.97204 53.3098 8.97204C54.4929 8.97204 55.1996 9.93933 55.1996 10.9729C55.1996 11.9534 54.5937 13.0267 53.2808 13.0267C52.6318 13.0267 52.026 12.828 51.521 12.2714V9.89957Z" fill="white"/>
<path d="M65.6585 11.4632C65.7162 11.1849 65.7594 10.8536 65.7594 10.5754C65.7594 8.72029 64.2016 7.35547 62.0953 7.35547C59.9172 7.35547 58.2437 8.97204 58.2437 11.0789C58.2437 13.1725 59.7873 14.6433 62.0808 14.6433C63.7111 14.6433 64.6776 14.0868 65.5432 12.934L64.2016 12.0992C63.7111 12.7617 63.2062 13.1327 62.2252 13.1327C61.1434 13.1327 60.4654 12.4172 60.321 11.4632H65.6585ZM60.4222 10.1778C60.6384 9.39607 61.1721 8.82629 62.153 8.82629C62.9899 8.82629 63.6245 9.34305 63.668 10.1778H60.4222Z" fill="white"/>
<path d="M70.9715 5.20703V14.4824H73.0346V10.9843H74.1886C75.9198 10.9843 77.968 10.2158 77.968 8.08243C77.968 5.97558 75.9053 5.20703 74.1886 5.20703H70.9715ZM73.0346 6.81037H74.1309C75.1119 6.81037 75.7754 7.30065 75.7754 8.12218C75.7754 9.04971 74.9533 9.38097 73.8567 9.38097H73.0346V6.81037Z" fill="white"/>
<path d="M85.5622 14.4843V10.2971C85.5622 8.48177 84.5381 7.35547 82.4318 7.35547C81.3068 7.35547 80.1383 7.63374 79.1715 8.071L79.7197 9.42256C80.3835 9.10456 81.1479 8.81303 82.0135 8.81303C83.1243 8.81303 83.5139 9.34305 83.5139 10.2176V10.3236C83.0376 10.2309 82.5617 10.1778 82.1434 10.1778C80.5711 10.1778 78.8399 10.7211 78.8399 12.4304C78.8399 13.8615 80.1525 14.6433 81.5662 14.6433C82.3741 14.6433 83.1388 14.4445 83.6293 13.888L83.7879 14.4843H85.5622ZM83.5139 12.7352C83.0811 13.093 82.5907 13.3315 81.999 13.3315C81.3932 13.3315 80.845 13.0135 80.845 12.404C80.845 11.5824 81.7251 11.3306 82.475 11.3306C82.7924 11.3306 83.1243 11.3704 83.5139 11.4499V12.7352Z" fill="white"/>
<path d="M94.7845 7.51448H93.0102L92.8371 8.33602C92.2889 7.60722 91.2935 7.35547 90.5291 7.35547C88.466 7.35547 86.9659 8.94555 86.9659 10.8934C86.9659 12.9075 88.495 14.4843 90.5001 14.4843C91.2358 14.4843 92.1736 14.259 92.7362 13.5965V14.2325C92.7362 15.3456 91.957 15.8756 90.8897 15.8756C90.1395 15.8756 89.0718 15.5841 88.2066 14.9878L87.4564 16.5381C88.5237 17.1874 89.7934 17.4922 90.9619 17.4922C92.3466 17.4922 93.645 17.0284 94.3085 15.9684C94.626 15.4781 94.7845 14.8686 94.7845 14.1133V7.51448ZM92.7362 11.9534C92.2889 12.6424 91.5822 12.8677 90.9474 12.8677C89.7789 12.8677 89.0577 11.9667 89.0577 10.9464C89.0577 9.97908 89.6635 8.97204 90.9761 8.97204C91.6109 8.97204 92.2167 9.17081 92.7362 9.72733V11.9534Z" fill="white"/>
<path d="M103.606 11.4632C103.664 11.1849 103.707 10.8536 103.707 10.5754C103.707 8.72029 102.149 7.35547 100.043 7.35547C97.8649 7.35547 96.1914 8.97204 96.1914 11.0789C96.1914 13.1725 97.735 14.6433 100.029 14.6433C101.659 14.6433 102.625 14.0868 103.491 12.934L102.149 12.0992C101.659 12.7617 101.154 13.1327 100.173 13.1327C99.0911 13.1327 98.4131 12.4172 98.2687 11.4632H103.606ZM98.3695 10.1778C98.5861 9.39607 99.1198 8.82629 100.101 8.82629C100.937 8.82629 101.572 9.34305 101.615 10.1778H98.3695Z" fill="white"/>
<path d="M110.442 8.26977C109.735 7.66024 108.826 7.35547 107.816 7.35547C106.431 7.35547 105.104 8.071 105.104 9.48881C105.104 10.7079 106.1 11.1849 107.009 11.5427C107.758 11.8474 108.451 12.0594 108.451 12.5497C108.451 12.9737 107.903 13.1592 107.485 13.1592C106.749 13.1592 106.273 12.8545 105.696 12.3377L104.527 13.4507C105.364 14.2193 106.402 14.6433 107.585 14.6433C109.057 14.6433 110.5 13.941 110.5 12.404C110.5 11.0789 109.259 10.6284 108.278 10.2574C107.643 10.0188 107.08 9.79357 107.08 9.35632C107.08 9.02506 107.427 8.82629 107.816 8.82629C108.393 8.82629 108.927 9.0913 109.317 9.4093L110.442 8.26977Z" fill="white"/>
</g>
<defs>
<clipPath id="clip0_435_5806">
<rect width="110.753" height="18.7717" fill="white" transform="translate(-6.10352e-05 0.681641)"/>
</clipPath>
</defs>
</svg>
